<svg xmlns="http://www.w3.org/2000/svg" xmlns:xlink="http://www.w3.org/1999/xlink" viewBox="0 0 166.53 66.82"><defs><style>.cls-1{fill:#4c5066;stroke:#4c5066;stroke-miterlimit:10;stroke-width:0.4px;}</style><symbol id="car_2" data-name="car 2" viewBox="0 0 57.42 23.2"><path class="cls-1" d="M39.62,7.68c.63,0,1.3.09,2,.16C40.92,7.77,40.26,7.72,39.62,7.68Z"/><path class="cls-1" d="M55.9,17c0-.29,0-.55,0-.56a6,6,0,0,0-.8-2.92,6,6,0,0,1,.8,2.92S55.9,16.71,55.9,17Z"/><path class="cls-1" d="M23.69,1.61a28.7,28.7,0,0,0-4.43.64q-.67.15-1.33.37.66-.21,1.33-.37A28.7,28.7,0,0,1,23.69,1.61Z"/><path class="cls-1" d="M46.25,20a3.74,3.74,0,0,0,1.23,1.19A3.74,3.74,0,0,1,46.25,20Z"/><path class="cls-1" d="M45.05,12.47a8.82,8.82,0,0,1,2.46-1.09A8.82,8.82,0,0,0,45.05,12.47Z"/><path class="cls-1" d="M25,7.55v-6l1.46,0L25,1.54v6h0Z"/><path class="cls-1" d="M13.26,8.41a1.9,1.9,0,0,1-.56-.59,2.58,2.58,0,0,1-.34-1.14,2.58,2.58,0,0,0,.34,1.14A1.9,1.9,0,0,0,13.26,8.41Z"/><path class="cls-1" d="M2.19,16.53l-.31.27a1,1,0,0,0-.28.35,1,1,0,0,1,.28-.35Z"/><path class="cls-1" d="M37.61,6.81a5.85,5.85,0,0,1-2.76.72A5.85,5.85,0,0,0,37.61,6.81Z"/><path class="cls-1" d="M11.66,11.45a8.42,8.42,0,0,0-2.05.11.66.66,0,0,1-.49-.11.66.66,0,0,0,.49.11A8.41,8.41,0,0,1,11.66,11.45Z"/><path class="cls-1" d="M27.4,9.75H25a.66.66,0,1,0,0,1.31h2.4a.66.66,0,0,0,0-1.31Z"/><path class="cls-1" d="M57.21,16.44c0-3.94-3.52-7.21-6.81-8.29a38.14,38.14,0,0,0-7.57-1.5c-1.45-.16-2.76-.27-4-.32l-3.15-5a.65.65,0,0,0-.38-.28A31.09,31.09,0,0,0,28,.22,35.3,35.3,0,0,0,19,1,21.15,21.15,0,0,0,9.62,6a44,44,0,0,0-5.55,6.41L2.86,14a10.56,10.56,0,0,1-1.52,1.5L1,15.82A2.51,2.51,0,0,0,.2,18v.22a.66.66,0,0,0,.66.66H6.1a5,5,0,0,0,9.81.33H44.49a5,5,0,0,0,9.85-.64h2.22a.66.66,0,0,0,.66-.66ZM25,1.54l1.46,0,1.53,0a38.7,38.7,0,0,1,5.09.41c.56.09,1.12.21,1.66.35l2.87,4.52a5.85,5.85,0,0,1-2.76.72c-.61,0-1.24,0-1.84,0h-1c-1.38,0-2.79,0-4.15,0H25ZM14.07,4.37a18.77,18.77,0,0,1,3.86-1.75q.66-.21,1.33-.37a28.7,28.7,0,0,1,4.43-.64V7.56L22,7.58c-1.25,0-2.52,0-3.79,0s-2.54-.05-3.78-.16a.73.73,0,0,1-.64-.33C13.45,6.52,13.8,5.1,14.07,4.37ZM11,21.69A3.73,3.73,0,1,1,14.77,18,3.73,3.73,0,0,1,11,21.69Zm38.31,0a3.7,3.7,0,0,1-1.88-.51A3.74,3.74,0,0,1,46.25,20a3.7,3.7,0,0,1-.56-1.36v0a.64.64,0,0,0,0-.18,3.78,3.78,0,0,1,0-.46,3.73,3.73,0,1,1,3.73,3.73Z"/><path class="cls-1" d="M45.7,18.6v0A3.7,3.7,0,0,0,46.25,20a3.7,3.7,0,0,1-.56-1.36Z"/><path class="cls-1" d="M17.84,13.89a7.52,7.52,0,0,0-.93-1.27A7.52,7.52,0,0,1,17.84,13.89Z"/><path class="cls-1" d="M48.22,9.87a11,11,0,0,0-3,1,11,11,0,0,1,3-1,.65.65,0,0,1,.76.52A.65.65,0,0,0,48.22,9.87Z"/><path class="cls-1" d="M45.19,10.89A9.32,9.32,0,0,0,43.51,12,9.32,9.32,0,0,1,45.19,10.89Z"/><path class="cls-1" d="M54.14,16.41a5,5,0,0,0-.84-1.57A5,5,0,0,1,54.14,16.41Z"/><path class="cls-1" d="M18.24,7.62c-1.27,0-2.54-.05-3.78-.16C15.7,7.57,17,7.61,18.24,7.62Z"/><path class="cls-1" d="M37.61,6.81,34.74,2.29c-.55-.14-1.1-.26-1.66-.35.56.09,1.12.21,1.66.35Z"/></symbol></defs><title>car</title><g id="Layer_2" data-name="Layer 2"><g id="Layer_1-2" data-name="Layer 1"><use id="car_2-3" data-name="car 2" width="57.42" height="23.2" transform="translate(-0.38 -0.38) scale(2.91)" xlink:href="#car_2"/></g></g></svg>