<svg xmlns="http://www.w3.org/2000/svg" viewBox="0 0 68.87 59.21"><defs><style>.cls-1{fill:#656a7f;stroke:#666b7f;stroke-width:0.77px;}.cls-1,.cls-2{stroke-miterlimit:10;}.cls-2{fill:none;stroke:#ff6876;stroke-width:3.08px;}</style></defs><title>details</title><g id="Layer_2" data-name="Layer 2"><g id="Layer_1-2" data-name="Layer 1"><path class="cls-1" d="M3.54,23h.82a4.27,4.27,0,0,1,1.89.47A37.58,37.58,0,0,1,8.94,18a8.37,8.37,0,0,1,5.65-3.33,42.17,42.17,0,0,1,7.35-.48,42.21,42.21,0,0,1,7.35.48A8.37,8.37,0,0,1,34.94,18a23.64,23.64,0,0,1,1.76,3.36,1.11,1.11,0,0,1-2,.92,20.81,20.81,0,0,0-1.56-3,6,6,0,0,0-4.22-2.4,40.31,40.31,0,0,0-7-.45,40.3,40.3,0,0,0-7,.45,6,6,0,0,0-4.21,2.41,42,42,0,0,0-3,6.3A1.11,1.11,0,0,1,6,26a2.46,2.46,0,0,0-1.66-.77H3.59a1,1,0,0,0-1,1v1.49a1.11,1.11,0,0,0,1.06,1.06h1a1.11,1.11,0,0,1,.89,1.78l-.28.39A7.81,7.81,0,0,0,4,35.46V45.69a1,1,0,0,0,1,1H7.82a1,1,0,0,0,1-1v-1.6a1.11,1.11,0,1,1,2.22,0v1.6a3.25,3.25,0,0,1-3.24,3.24H5a3.25,3.25,0,0,1-3.24-3.24V35.49a10.17,10.17,0,0,1,1-4.62A3.3,3.3,0,0,1,.39,27.77V26.19A3.23,3.23,0,0,1,3.54,23ZM54.76,36.09v1.58a3.3,3.3,0,0,1-2.4,3.11,10.2,10.2,0,0,1,1,4.64V55.59a3.25,3.25,0,0,1-3.24,3.24H47.34a3.25,3.25,0,0,1-3.24-3.24v-.49H22.31v.49a3.25,3.25,0,0,1-3.24,3.24H16.29a3.25,3.25,0,0,1-3.24-3.24V45.39a10.16,10.16,0,0,1,1-4.62,3.3,3.3,0,0,1-2.4-3.11h0V36.08a3.23,3.23,0,0,1,3.17-3.15h.82a4.27,4.27,0,0,1,1.89.47,37.54,37.54,0,0,1,2.69-5.48,8.38,8.38,0,0,1,5.65-3.33,42.17,42.17,0,0,1,7.35-.48,42.2,42.2,0,0,1,7.35.48,8.37,8.37,0,0,1,5.65,3.33,37.5,37.5,0,0,1,2.69,5.48,4.23,4.23,0,0,1,1.87-.47h.84A3.23,3.23,0,0,1,54.76,36.09Zm-2.22.08a1,1,0,0,0-1-1h-.78a2.46,2.46,0,0,0-1.62.77,1.11,1.11,0,0,1-1.79-.39,42,42,0,0,0-3-6.35,6,6,0,0,0-4.21-2.41,40.31,40.31,0,0,0-7-.45,40.3,40.3,0,0,0-7,.45A6,6,0,0,0,22,29.17a42,42,0,0,0-3,6.33,1.11,1.11,0,0,1-1.79.39,2.46,2.46,0,0,0-1.66-.77h-.74a1,1,0,0,0-1,1s0,0,0,0V37.6a1.11,1.11,0,0,0,1.07,1.06h1a1.11,1.11,0,0,1,.89,1.78l-.28.39a7.8,7.8,0,0,0-1.29,4.52V55.59a1,1,0,0,0,1,1h2.77a1,1,0,0,0,1-1V54a1.11,1.11,0,0,1,1.11-1.11h24A1.11,1.11,0,0,1,46.32,54v1.6a1,1,0,0,0,1,1h2.77a1,1,0,0,0,1-1V45.39a7.83,7.83,0,0,0-1.29-4.54l-.28-.39a1.11,1.11,0,0,1,.89-1.78h1a1.11,1.11,0,0,0,1.06-1.07Zm-4.66,7.62v1a2.77,2.77,0,0,1-2.77,2.77H41.22a2.77,2.77,0,0,1-.7-5.45l3.88-1a2.77,2.77,0,0,1,3.47,2.68Zm-2.22,0a.55.55,0,0,0-.55-.55H45l-3.88,1a.55.55,0,0,0,.14,1.08h3.88a.55.55,0,0,0,.55-.55ZM28,44.81a2.77,2.77,0,0,1-2.77,2.77H21.32a2.77,2.77,0,0,1-2.77-2.77v-1A2.77,2.77,0,0,1,22,41.12l3.88,1A2.77,2.77,0,0,1,28,44.81Zm-2.22,0a.55.55,0,0,0-.41-.55l-3.88-1h-.14a.55.55,0,0,0-.55.55v1a.55.55,0,0,0,.55.55H25.2A.55.55,0,0,0,25.75,44.81Z"/><polyline class="cls-2" points="26.42 10.63 28.35 6.39 35.68 9.09 40.4 2.44 46.57 9.09 54.18 4.37 56.02 13.14 63.73 15.26 60.74 22.49 66.81 28.08 61.41 35.4 64.21 43.21 57.85 43.4"/></g></g></svg>