<?xml version="1.0" encoding="UTF-8"?>
<svg width="17px" height="17px" viewBox="0 0 17 17" version="1.1" xmlns="http://www.w3.org/2000/svg" xmlns:xlink="http://www.w3.org/1999/xlink">
    <!-- Generator: Sketch 46.2 (44496) - http://www.bohemiancoding.com/sketch -->
    <title>plus</title>
    <desc>Created with Sketch.</desc>
    <defs>
        <path d="M3.4000001,0 L616.6,0 L616.6,-4.4408921e-16 C618.477768,-7.89029633e-16 620,1.52223189 620,3.4000001 L620,48 L0,48 L0,3.4000001 L4.4408921e-16,3.4000001 C2.14128928e-16,1.52223189 1.52223189,-9.91487871e-17 3.4000001,-4.4408921e-16 Z" id="path-1"></path>
    </defs>
    <g id="01-Desktop" stroke="none" stroke-width="1" fill="none" fill-rule="evenodd">
        <g id="02D_Jog_Dashboard-Motor-Policy-Overview-Copy" transform="translate(-629.000000, -305.000000)">
            <g id="Group-3" transform="translate(42.000000, 289.000000)">
                <g id="Mixin/Fill/Top-Capped">
                    <mask id="mask-2" fill="white">
                        <use xlink:href="#path-1"></use>
                    </mask>
                    <use id="Mask" fill="#9013FE" fill-rule="evenodd" xlink:href="#path-1"></use>
                    <g id="Fill/Solid/Jog-Grey-3" mask="url(#mask-2)" fill-rule="evenodd" fill="#ECEDEF">
                        <polygon id="Rectangle" points="0 48 620 48 620 0 0 0"></polygon>
                    </g>
                    <g id="Mixin/State/Normal" mask="url(#mask-2)">
                        <rect id="Box" x="0" y="0" width="620" height="48"></rect>
                    </g>
                </g>
                <path d="M596.666667,23.3333333 L596.666667,14 L594.333333,14 L594.333333,23.3333333 L585,23.3333333 L585,25.6666667 L594.333333,25.6666667 L594.333333,35 L596.666667,35 L596.666667,25.6666667 L606,25.6666667 L606,23.3333333 L596.666667,23.3333333 Z" id="plus" fill="#666B7F" transform="translate(595.500000, 24.500000) rotate(-315.000000) translate(-595.500000, -24.500000) "></path>
            </g>
        </g>
    </g>
</svg>