<?xml version="1.0" encoding="UTF-8"?>
<svg width="20px" height="20px" viewBox="0 0 20 20" version="1.1" xmlns="http://www.w3.org/2000/svg" xmlns:xlink="http://www.w3.org/1999/xlink">
    <!-- Generator: Sketch 46.2 (44496) - http://www.bohemiancoding.com/sketch -->
    <title>Page 1</title>
    <desc>Created with Sketch.</desc>
    <defs>
        <polygon id="path-1" points="20 20 20 0 1.80898144e-21 3.79257644e-15 0 20 20 20"></polygon>
    </defs>
    <g id="01-Desktop" stroke="none" stroke-width="1" fill="none" fill-rule="evenodd">
        <g id="02D_Jog_Dashboard-Motor-Policy-Overview" transform="translate(-628.000000, -303.000000)">
            <g id="Page-1" transform="translate(628.000000, 303.000000)">
                <mask id="mask-2" fill="white">
                    <use xlink:href="#path-1"></use>
                </mask>
                <g id="Clip-2"></g>
                <path d="M6.39652168,12.0016411 L7.99393154,13.5985774 L5.97279261,14.029053 L6.39652168,12.0016411 Z M0.597259814,2.22586917 C0.256087505,2.26149749 -0.00166043316,2.5495932 8.05426479e-06,2.89239907 L8.05426479e-06,19.3335368 C8.05426479e-06,19.7014293 0.298667304,20 0.66673563,20 L17.1126825,20 C17.4807508,20 17.7794768,19.7014293 17.7794768,19.3335368 L17.7794768,9.55769814 C17.7820797,9.37888931 17.7126038,9.20708606 17.5876008,9.08038533 C17.4625977,8.95281724 17.2915444,8.88162731 17.1126825,8.88162731 C16.9338874,8.88162731 16.7628341,8.95281724 16.637831,9.08038533 C16.5128279,9.20708606 16.4433521,9.37895603 16.4459549,9.55769814 L16.4459549,18.6669402 L1.33352995,18.6669402 L1.33352995,3.55892898 L10.4454067,3.55892898 C10.6242686,3.56159777 10.7961895,3.49214255 10.9228611,3.36710981 C11.050467,3.24214379 11.1217448,3.0712079 11.1217448,2.89239907 C11.1217448,2.71365697 11.050467,2.54272107 10.9228611,2.41768833 C10.7961895,2.29272232 10.6242686,2.2232671 10.4454067,2.22586917 L0.66673563,2.22586917 C0.643310067,2.22500181 0.620752117,2.22500181 0.597259814,2.22586917 L0.597259814,2.22586917 Z M16.0014031,1.60797793 L18.3904769,4.00328225 L9.33412738,13.0569468 L6.94498686,10.6685813 L16.0014031,1.60797793 Z M15.9249864,0.00410281202 C15.7748225,0.0223840127 15.63507,0.0909051552 15.5291545,0.198524048 L5.52817408,10.1964726 C5.43707466,10.2876118 5.37453976,10.4039042 5.34764374,10.5297376 L4.45867364,14.7510937 C4.4109549,14.9724029 4.47949636,15.2023858 4.63927072,15.3620461 C4.79897833,15.521773 5.02902938,15.5902942 5.25040429,15.5425896 L9.47301227,14.6538831 C9.59975058,14.6252603 9.71607752,14.5602086 9.80637606,14.4664007 L19.8072897,4.46851879 C20.0642368,4.20897912 20.0642368,3.79071325 19.8072897,3.53117358 L16.4736518,0.198524048 C16.3304289,0.0527414809 16.1281414,-0.0184484501 15.9249864,0.00410281202 L15.9249864,0.00410281202 Z" id="Fill-1" fill="#666B7F" mask="url(#mask-2)"></path>
            </g>
        </g>
    </g>
</svg>