<?xml version="1.0" encoding="UTF-8"?>
<svg width="24px" height="24px" viewBox="0 0 24 24" version="1.1" xmlns="http://www.w3.org/2000/svg" xmlns:xlink="http://www.w3.org/1999/xlink">
    <!-- Generator: Sketch 46.2 (44496) - http://www.bohemiancoding.com/sketch -->
    <title>share-ico-fb</title>
    <desc>Created with Sketch.</desc>
    <defs></defs>
    <g id="01-Desktop" stroke="none" stroke-width="1" fill="none" fill-rule="evenodd">
        <g id="02A_Jog_Landing-Page" transform="translate(-879.000000, -1296.000000)" fill-rule="nonzero" fill="#FFFFFF">
            <g id="Dashboard/Footer/Desktop" transform="translate(43.000000, 1271.000000)">
                <g id="Footer-Share-Icons" transform="translate(836.000000, 0.000000)">
                    <g id="footer-social" transform="translate(0.000000, 25.000000)">
                        <path d="M12,0 C5.372583,-4.05812251e-16 8.11624501e-16,5.372583 0,12 C-8.11624501e-16,18.627417 5.372583,24 12,24 C18.627417,24 24,18.627417 24,12 C24,8.81740212 22.7357179,5.76515517 20.4852814,3.51471863 C18.2348448,1.26428208 15.1825979,1.94877915e-16 12,0 Z M15.8976,6.72 L14.4,6.72 C14.0123441,6.64896191 13.6146569,6.7743937 13.3379068,7.05498754 C13.0611567,7.33558138 12.9412219,7.73496076 13.0176,8.1216 L13.0176,9.9552 L15.8976,9.9552 L15.5136,12.8352 L12.9984,12.8352 L12.9984,20.16 L10.0032,20.16 L10.0032,12.7776 L7.5168,12.7776 L7.5168,9.8976 L9.9936,9.8976 L9.9936,7.7856 C9.89182665,6.77084618 10.2434416,5.76295122 10.9543269,5.03170208 C11.6652121,4.30045293 12.6627771,3.92051952 13.68,3.9936 C14.4176018,3.98955538 15.1548239,4.02801914 15.888,4.1088 L15.888,6.72 L15.8976,6.72 Z" id="share-ico-fb"></path>
                    </g>
                </g>
            </g>
        </g>
    </g>
</svg>