<?xml version="1.0" encoding="UTF-8"?>
<svg width="24px" height="24px" viewBox="0 0 24 24" version="1.1" xmlns="http://www.w3.org/2000/svg" xmlns:xlink="http://www.w3.org/1999/xlink">
    <!-- Generator: Sketch 46.2 (44496) - http://www.bohemiancoding.com/sketch -->
    <title>share-ico-linked</title>
    <desc>Created with Sketch.</desc>
    <defs></defs>
    <g id="01-Desktop" stroke="none" stroke-width="1" fill="none" fill-rule="evenodd">
        <g id="02A_Jog_Landing-Page" transform="translate(-959.000000, -1296.000000)" fill-rule="nonzero" fill="#FFFFFF">
            <g id="Dashboard/Footer/Desktop" transform="translate(43.000000, 1271.000000)">
                <g id="Footer-Share-Icons" transform="translate(836.000000, 0.000000)">
                    <g id="footer-social" transform="translate(0.000000, 25.000000)">
                        <path d="M92,0 C85.372583,-4.05812251e-16 80,5.372583 80,12 C80,18.627417 85.372583,24 92,24 C98.627417,24 104,18.627417 104,12 C104,8.81740212 102.735718,5.76515517 100.485281,3.51471863 C98.2348448,1.26428208 95.1825979,1.94877915e-16 92,0 Z M88.8608,18 L85.76,18 L85.76,8.784 L88.832,8.784 L88.832,18 L88.8608,18 Z M87.3248,7.5264 L87.3248,7.5264 C86.8818514,7.56142662 86.4445573,7.40879885 86.1196051,7.10575357 C85.7946529,6.8027083 85.6119244,6.37711265 85.616,5.9328 C85.6173173,5.48674159 85.804412,5.0613983 86.1323183,4.75899579 C86.4602247,4.45659329 86.8992934,4.30447479 87.344,4.3392 C87.9133384,4.34262974 88.4375991,4.6495374 88.7192981,5.14431384 C89.0009971,5.63909027 88.9973376,6.24656717 88.7096981,6.73791385 C88.4220586,7.22926054 87.8941384,7.52982976 87.3248,7.5264 L87.3248,7.5264 Z M99.9008,18 L96.8384,18 L96.8384,13.0656 C96.8384,11.8272 96.3968,10.9824 95.2832,10.9824 C94.5763946,10.9854492 93.94709,11.4305671 93.7088,12.096 C93.6324264,12.3380413 93.5967419,12.5910773 93.6032,12.8448 L93.6032,17.9904 L90.56,17.9904 L90.56,8.7744 L93.6224,8.7744 L93.6224,10.0896 C94.1840091,9.10174426 95.2520109,8.51211827 96.3872,8.5632 C98.4032,8.5632 99.9104,9.888 99.9104,12.7104 L99.9104,17.9904 L99.9008,18 Z" id="share-ico-linked"></path>
                    </g>
                </g>
            </g>
        </g>
    </g>
</svg>