<?xml version="1.0" encoding="UTF-8"?>
<svg width="26px" height="7px" viewBox="0 0 26 7" version="1.1" xmlns="http://www.w3.org/2000/svg" xmlns:xlink="http://www.w3.org/1999/xlink">
    <!-- Generator: Sketch 46.2 (44496) - http://www.bohemiancoding.com/sketch -->
    <title>more-circles</title>
    <desc>Created with Sketch.</desc>
    <defs>
        <filter x="-17.5%" y="-12.5%" width="135.0%" height="137.5%" filterUnits="objectBoundingBox" id="filter-1">
            <feOffset dx="0" dy="2" in="SourceAlpha" result="shadowOffsetOuter1"></feOffset>
            <feGaussianBlur stdDeviation="2" in="shadowOffsetOuter1" result="shadowBlurOuter1"></feGaussianBlur>
            <feColorMatrix values="0 0 0 0 0.2   0 0 0 0 0.2   0 0 0 0 0.2  0 0 0 0.2 0" type="matrix" in="shadowBlurOuter1" result="shadowMatrixOuter1"></feColorMatrix>
            <feMerge>
                <feMergeNode in="shadowMatrixOuter1"></feMergeNode>
                <feMergeNode in="SourceGraphic"></feMergeNode>
            </feMerge>
        </filter>
    </defs>
    <g id="01-Desktop" stroke="none" stroke-width="1" fill="none" fill-rule="evenodd">
        <g id="02E_Jog_Dashboard-Motors-Policy-Quote-Copy-4" transform="translate(-741.000000, -557.000000)">
            <g id="Incomplete---waiting" filter="url(#filter-1)" transform="translate(734.000000, 541.000000)">
                <g id="Group-3">
                    <path d="M19.868,40.00024 C8.9128,40.00024 0,31.08744 0,20.13224 C0,9.17704 8.9128,0.26504 19.868,0.26504 C30.8232,0.26504 39.736,9.17704 39.736,20.13224 C39.736,31.08744 30.8232,40.00024 19.868,40.00024" id="Fill-1" fill="#A1A4B0"></path>
                    <g id="more-circles" transform="translate(7.000000, 16.000000)" fill="#FFFFFF">
                        <path d="M6.11642857,3.691875 C6.11642857,5.24276786 4.85928571,6.49991071 3.3075,6.49991071 C1.75660714,6.49991071 0.500357143,5.24276786 0.500357143,3.691875 C0.500357143,2.14098214 1.75660714,0.883839286 3.3075,0.883839286 C4.85928571,0.883839286 6.11642857,2.14098214 6.11642857,3.691875" id="Fill-1"></path>
                        <path d="M15.8664286,3.691875 C15.8664286,5.24276786 14.6092857,6.49991071 13.0575,6.49991071 C11.5066071,6.49991071 10.2503571,5.24276786 10.2503571,3.691875 C10.2503571,2.14098214 11.5066071,0.883839286 13.0575,0.883839286 C14.6092857,0.883839286 15.8664286,2.14098214 15.8664286,3.691875" id="Fill-4"></path>
                        <path d="M25.8664286,3.691875 C25.8664286,5.24276786 24.6092857,6.49991071 23.0575,6.49991071 C21.5066071,6.49991071 20.2503571,5.24276786 20.2503571,3.691875 C20.2503571,2.14098214 21.5066071,0.883839286 23.0575,0.883839286 C24.6092857,0.883839286 25.8664286,2.14098214 25.8664286,3.691875" id="Fill-7"></path>
                    </g>
                </g>
            </g>
        </g>
    </g>
</svg>