<?xml version="1.0" encoding="UTF-8"?>
<svg width="81px" height="81px" viewBox="0 0 81 81" version="1.1" xmlns="http://www.w3.org/2000/svg" xmlns:xlink="http://www.w3.org/1999/xlink" style="background: #FFFFFF;">
    <!-- Generator: Sketch 46.2 (44496) - http://www.bohemiancoding.com/sketch -->
    <title>Page 1</title>
    <desc>Created with Sketch.</desc>
    <defs>
        <rect id="path-1" x="0" y="0" width="300" height="214"></rect>
        <polygon id="path-3" points="81 81 81 0 0 0 5.50292265e-16 81"></polygon>
    </defs>
    <g id="01-Desktop" stroke="none" stroke-width="1" fill="none" fill-rule="evenodd">
        <g id="02D_Jog_Dashboard-Motors-Policy-Doc-Copy-2" transform="translate(-794.000000, -364.000000)">
            <polygon id="Fill-1" fill="#FFFDF7" points="-1 1539 1028 1539 1028 0 -1 0"></polygon>
            <g id="Mixin/Fill/Flat-Middle" transform="translate(682.000000, 338.000000)">
                <mask id="mask-2" fill="white">
                    <use xlink:href="#path-1"></use>
                </mask>
                <use id="Mask" fill="#9013FE" fill-rule="evenodd" xlink:href="#path-1"></use>
                <g id="Fill/Solid/Jog-White" mask="url(#mask-2)" fill-rule="evenodd" fill="#FFFFFF">
                    <polygon id="Rectangle" points="0 214 300 214 300 0 0 0"></polygon>
                </g>
                <g id="Mixin/State/Normal" mask="url(#mask-2)">
                    <rect id="Box" x="0" y="0" width="300" height="214"></rect>
                </g>
            </g>
            <g id="Page-1" transform="translate(794.000000, 364.000000)">
                <mask id="mask-4" fill="white">
                    <use xlink:href="#path-3"></use>
                </mask>
                <g id="Clip-2"></g>
                <path d="M51.75,47.2505435 C49.236413,47.2505435 47.25,49.2369565 47.25,51.7508152 C47.25,54.2644022 49.236413,56.2505435 51.75,56.2505435 C54.263587,56.2505435 56.25,54.2644022 56.25,51.7508152 C56.25,49.2369565 54.263587,47.2505435 51.75,47.2505435 L51.75,47.2505435 Z M51.75,42.7505435 C56.69375,42.7505435 60.75,46.8067935 60.75,51.7508152 C60.75,56.6945652 56.69375,60.7508152 51.75,60.7508152 C46.80625,60.7508152 42.75,56.6945652 42.75,51.7508152 C42.75,46.8067935 46.80625,42.7505435 51.75,42.7505435 L51.75,42.7505435 Z M29.25,24.7505435 C26.7361413,24.7505435 24.75,26.7369565 24.75,29.2505435 C24.75,31.7644022 26.7361413,33.7505435 29.25,33.7505435 C31.763587,33.7505435 33.75,31.7644022 33.75,29.2505435 C33.75,26.7369565 31.763587,24.7505435 29.25,24.7505435 L29.25,24.7505435 Z M29.25,20.2505435 C34.19375,20.2505435 38.25,24.3067935 38.25,29.2505435 C38.25,34.1945652 34.19375,38.2505435 29.25,38.2505435 C24.3059783,38.2505435 20.25,34.1945652 20.25,29.2505435 C20.25,24.3067935 24.3059783,20.2505435 29.25,20.2505435 L29.25,20.2505435 Z M58.5,20.180163 C59.4358696,20.1540761 60.288587,20.7163043 60.6399457,21.582337 C60.9915761,22.4521739 60.7717391,23.4453804 60.0817935,24.0826087 L24.0820652,60.0828804 C23.6600543,60.513587 23.0842391,60.7595109 22.4779891,60.7638587 C21.8714674,60.7682065 21.2913043,60.5263587 20.8695652,60.0959239 C20.4432065,59.6652174 20.2103261,59.0853261 20.2190217,58.4785326 C20.2279891,57.8722826 20.4782609,57.2967391 20.9179348,56.8834239 L56.9179348,20.8834239 C57.2649457,20.51875 57.7220109,20.2858696 58.2184783,20.2154891 C58.3108696,20.1978261 58.4076087,20.1847826 58.4997283,20.180163 L58.5,20.180163 Z M40.5,0 C37.2918478,0 34.0355978,3.91548913 30.9375,4.74619565 C27.8394022,5.57690217 23.0274457,3.81005435 20.25,5.41413043 C17.4725543,7.01820652 16.6111413,12.0763587 14.34375,14.34375 C12.076087,16.611413 7.01793478,17.4725543 5.4138587,20.25 C3.81005435,23.0274457 5.57663043,27.8394022 4.74592391,30.9375 C3.91548913,34.0358696 0,37.2921196 0,40.5 C0,43.7081522 3.91548913,46.9644022 4.74592391,50.0627717 C5.57663043,53.1605978 3.81005435,57.9728261 5.4138587,60.7502717 C7.01793478,63.5274457 12.076087,64.388587 14.34375,66.65625 C16.6111413,68.923913 17.4725543,73.9820652 20.25,75.5858696 C23.0274457,77.1902174 27.8394022,75.4233696 30.9375,76.2538043 C34.0355978,77.0845109 37.2918478,81 40.5,81 C43.7078804,81 46.9644022,77.0845109 50.0625,76.2538043 C53.1605978,75.4233696 57.9725543,77.1902174 60.75,75.5858696 C63.5274457,73.9820652 64.388587,68.923913 66.6559783,66.65625 C68.9236413,64.388587 73.9817935,63.5274457 75.5858696,60.7502717 C77.1899457,57.9725543 75.4230978,53.1605978 76.2538043,50.0627717 C77.0842391,46.9644022 81,43.7081522 81,40.5 C81,37.2921196 77.0842391,34.0358696 76.2538043,30.9375 C75.4230978,27.8394022 77.1899457,23.0274457 75.5858696,20.25 C73.9817935,17.4725543 68.9236413,16.611413 66.6559783,14.34375 C64.388587,12.0763587 63.5274457,7.01820652 60.75,5.41413043 C57.9725543,3.81005435 53.1605978,5.57690217 50.0625,4.74619565 C46.9644022,3.91548913 43.7078804,0 40.5,0 L40.5,0 Z" id="Fill-1" fill="#ECEDEF" mask="url(#mask-4)"></path>
            </g>
        </g>
    </g>
</svg>