<?xml version="1.0" encoding="UTF-8"?>
<svg width="56px" height="37px" viewBox="0 0 56 37" version="1.1" xmlns="http://www.w3.org/2000/svg" xmlns:xlink="http://www.w3.org/1999/xlink">
    <!-- Generator: Sketch 46.2 (44496) - http://www.bohemiancoding.com/sketch -->
    <title>Page 1</title>
    <desc>Created with Sketch.</desc>
    <defs></defs>
    <g id="01-Desktop" stroke="none" stroke-width="1" fill="none" fill-rule="evenodd">
        <g id="02C_Jog_Dashboard-Add-Policy" transform="translate(-548.000000, -377.000000)">
            <g id="Page-1" transform="translate(548.000000, 377.000000)">
                <g id="Group-3"></g>
                <path d="M54.225558,32.9543146 C54.225558,34.319148 53.1564671,35.3894813 51.7896145,35.3894813 L4.01946505,35.3894813 C2.65261253,35.3894813 1.58352162,34.319148 1.58352162,32.9543146 L1.58352162,4.55881464 C1.58352162,3.19398131 2.65261253,2.12364797 4.01946505,2.12364797 L51.7896145,2.12364797 C53.1564671,2.12364797 54.225558,3.19398131 54.225558,4.55881464 L54.225558,32.9543146 Z M51.7896145,0.54031464 L4.01946505,0.54031464 C1.76566303,0.54031464 -0.000316767677,2.30573131 -0.000316767677,4.55881464 L-0.000316767677,32.9543146 C-0.000316767677,35.207398 1.76566303,36.9728146 4.01946505,36.9728146 L51.7896145,36.9728146 C54.0434166,36.9728146 55.8093964,35.207398 55.8093964,32.9543146 L55.8093964,4.55881464 C55.8093964,2.30573131 54.0434166,0.54031464 51.7896145,0.54031464 L51.7896145,0.54031464 Z" id="Fill-1" fill="#192142"></path>
                <polygon id="Fill-4" fill="#192142" points="7 7.63291966 11.278042 7.63291966 11.278042 29.3670803 7 29.3670803 7 31 17 31 17 29.3670803 12.8124904 29.3670803 12.8124904 7.63291966 17 7.63291966 17 6 7 6"></polygon>
            </g>
        </g>
    </g>
</svg>