<?xml version="1.0" encoding="UTF-8"?>
<svg width="55px" height="44px" viewBox="0 0 55 44" version="1.1" xmlns="http://www.w3.org/2000/svg" xmlns:xlink="http://www.w3.org/1999/xlink">
    <!-- Generator: Sketch 46.2 (44496) - http://www.bohemiancoding.com/sketch -->
    <title>Page 1</title>
    <desc>Created with Sketch.</desc>
    <defs>
        <polygon id="path-1" points="0 44 55 44 55 0 0 0"></polygon>
    </defs>
    <g id="01-Desktop" stroke="none" stroke-width="1" fill="none" fill-rule="evenodd">
        <g id="02C_Jog_Dashboard-Policy-" transform="translate(-70.000000, -465.000000)">
            <g id="Page-1" transform="translate(70.000000, 465.000000)">
                <path d="M35.5283414,8.55555556 L19.5250882,8.55555556 L35.5283414,8.55555556 Z M16.345667,8.55555556 L38.7077627,8.55555556 L47.9489575,8.55555556 C51.1818085,8.55555556 53.7777778,11.1041305 53.7777778,14.2763896 L53.7777778,37.0569437 C53.7777778,40.2292028 51.1818085,42.7777778 47.9489575,42.7777778 L7.05175486,42.7777778 C3.8716212,42.7777778 1.22222222,40.2292028 1.22222222,37.0569437 L1.22222222,14.2763896 C1.22222222,11.1041305 3.81890394,8.55555556 7.05175486,8.55555556 L16.345667,8.55555556 Z" id="Fill-1" fill="#666B7F"></path>
                <g id="Group-5" transform="translate(15.888889, 0.000000)" fill="#001E46">
                    <path d="M23.0496521,9.18335873 L21.0728604,9.18335873 L21.0728604,4.10450159 C21.0728604,2.97307302 20.1163951,2.05256508 18.9414958,2.05256508 L4.64168681,2.05256508 C3.46606181,2.05256508 2.50959653,2.97307302 2.50959653,4.10450159 L2.50959653,9.18335873 L0.533530556,9.18335873 L0.533530556,4.10450159 C0.533530556,1.92405714 2.37606875,0.150088889 4.64168681,0.150088889 L18.9414958,0.150088889 C21.2063882,0.150088889 23.0496521,1.92405714 23.0496521,4.10450159 L23.0496521,9.18335873 Z" id="Fill-3"></path>
                </g>
                <mask id="mask-2" fill="white">
                    <use xlink:href="#path-1"></use>
                </mask>
                <g id="Clip-7"></g>
                <polygon id="Fill-6" fill="#001E46" mask="url(#mask-2)" points="40.3333333 41.5555556 42.7777778 41.5555556 42.7777778 8.55555556 40.3333333 8.55555556"></polygon>
                <polygon id="Fill-8" fill="#001E46" mask="url(#mask-2)" points="13.4444444 41.5555556 15.8888889 41.5555556 15.8888889 8.55555556 13.4444444 8.55555556"></polygon>
                <path d="M6.86205815,9.26640732 C4.15792983,9.26640732 1.95781479,11.4379222 1.95781479,14.1061888 L1.95781479,37.2271446 C1.95781479,39.8961208 4.15792983,42.0676357 6.86205815,42.0676357 L48.1379419,42.0676357 C50.8420702,42.0676357 53.0421852,39.8961208 53.0421852,37.2271446 L53.0421852,14.1061888 C53.0421852,11.4379222 50.8420702,9.26640732 48.1379419,9.26640732 L6.86205815,9.26640732 Z M48.1379419,44 L6.86205815,44 C3.07800408,44 0,40.9620082 0,37.2271446 L0,14.1061888 C0,10.3720348 3.07800408,7.33333333 6.86205815,7.33333333 L48.1379419,7.33333333 C51.9219959,7.33333333 55,10.3720348 55,14.1061888 L55,37.2271446 C55,40.9620082 51.9219959,44 48.1379419,44 L48.1379419,44 Z" id="Fill-9" fill="#001E46" mask="url(#mask-2)"></path>
            </g>
        </g>
    </g>
</svg>