<?xml version="1.0" encoding="UTF-8"?>
<svg width="56px" height="33px" viewBox="0 0 56 33" version="1.1" xmlns="http://www.w3.org/2000/svg" xmlns:xlink="http://www.w3.org/1999/xlink">
    <!-- Generator: Sketch 46.2 (44496) - http://www.bohemiancoding.com/sketch -->
    <title>Fill 1</title>
    <desc>Created with Sketch.</desc>
    <defs></defs>
    <g id="01-Desktop" stroke="none" stroke-width="1" fill="none" fill-rule="evenodd">
        <g id="02C_Jog_Dashboard-Add-Policy" transform="translate(-69.000000, -377.000000)" fill="#192142">
            <g id="Page-1" transform="translate(69.000000, 377.000000)">
                <path d="M54.4076433,28.0183301 C54.4076433,28.640643 54.2261146,29.2170345 53.9315287,29.7190019 L36.7802548,15.1112764 L53.8455414,3.12423225 C54.1990446,3.65786948 54.4076433,4.29443378 54.4076433,4.98008637 L54.4076433,28.0183301 Z M5.00796178,31.4165067 C4.39968153,31.4165067 3.83757962,31.243906 3.34235669,30.9667946 L21.1178344,15.790595 L28.3901274,21.0066219 L35.4394904,16.0534549 L52.8343949,30.8702015 C52.3025478,31.2122361 51.6719745,31.4165067 50.9904459,31.4165067 L5.00796178,31.4165067 Z M1.59235669,4.98008637 C1.59235669,4.02207294 1.99681529,3.1590691 2.64171975,2.53992322 L19.7882166,14.8389155 L2.16082803,29.8884357 C1.80254777,29.3516315 1.59235669,28.7103167 1.59235669,28.0183301 L1.59235669,4.98008637 Z M50.9904459,1.58349328 C51.5955414,1.58349328 52.1544586,1.75292706 52.6480892,2.0268714 L28.3996815,19.0605086 L4.18312102,1.69433781 C4.44904459,1.62783109 4.72292994,1.58349328 5.00796178,1.58349328 L50.9904459,1.58349328 Z M50.9904459,0 L5.00796178,0 C2.24681529,0 0,2.23272553 0,4.98008637 L0,28.0183301 C0,30.7641075 2.24681529,33 5.00796178,33 L50.9904459,33 C53.7531847,33 56,30.7641075 56,28.0183301 L56,4.98008637 C56,2.23272553 53.7531847,0 50.9904459,0 L50.9904459,0 Z" id="Fill-1"></path>
            </g>
        </g>
    </g>
</svg>