<?xml version="1.0" encoding="UTF-8"?>
<svg width="76px" height="35px" viewBox="0 0 76 35" version="1.1" xmlns="http://www.w3.org/2000/svg" xmlns:xlink="http://www.w3.org/1999/xlink">
    <!-- Generator: Sketch 46.2 (44496) - http://www.bohemiancoding.com/sketch -->
    <title>Page 1</title>
    <desc>Created with Sketch.</desc>
    <defs>
        <polygon id="path-1" points="0 0.000921078031 0 34.8386305 75.6422515 34.8386305 75.6422515 0.000921078031"></polygon>
    </defs>
    <g id="01-Desktop" stroke="none" stroke-width="1" fill="none" fill-rule="evenodd">
        <g id="02C_Jog_Dashboard-Policy-" transform="translate(-61.000000, -381.000000)">
            <g id="Page-1" transform="translate(61.000000, 381.000000)">
                <g id="Group-3">
                    <mask id="mask-2" fill="white">
                        <use xlink:href="#path-1"></use>
                    </mask>
                    <g id="Clip-2"></g>
                    <path d="M73.1170144,21.6323842 L73.1162309,23.1431173 C73.1366021,24.1067243 72.9947876,24.9571056 72.8803959,25.4773109 L71.5123959,26.031563 C71.4794887,21.2349062 67.6105402,17.3424721 62.8554474,17.3424721 C58.080767,17.3424721 54.1961485,21.2665777 54.1961485,26.0909472 C54.1961485,26.4314164 53.6806021,26.7354633 53.6806021,26.7354633 L19.5009732,26.7354633 C19.5056742,26.6942903 19.5064577,26.6705367 19.5088082,26.6388651 L19.5009732,26.6388651 C19.5095918,26.5628534 19.5135093,26.5082199 19.5150763,26.4607126 C19.5127258,26.3672815 19.5009732,26.290478 19.5009732,26.0909472 C19.5009732,21.2665777 15.6155711,17.3424721 10.8408907,17.3424721 C7.1435299,17.3424721 3.98913814,19.7004194 2.75041649,23.0013871 C2.62427216,22.2175161 2.57647835,21.430478 2.57177732,20.7447889 C2.56394227,20.0788944 2.59684948,19.5032639 2.64072577,19.116871 C2.67598351,18.4834399 2.86480825,18.0922962 3.09124124,18.0685425 L4.41223093,18.108132 L4.39107629,16.8681906 C4.39107629,16.8523548 4.39185979,16.8373109 4.39185979,16.8214751 L4.39107629,16.7715924 C4.24299381,8.53936364 8.86645773,4.23203226 10.7484371,4.07684164 C10.7476536,4.08238416 10.7468701,4.11880645 10.7460866,4.17423167 C10.7468701,4.17423167 10.7476536,4.17423167 10.7484371,4.17423167 C10.7445196,4.19877713 10.7429526,4.78390909 10.7429526,5.57807331 C10.7429526,7.34772141 10.7484371,10.0524721 10.7484371,10.0524721 C10.7484371,10.0524721 53.4894268,9.98754545 54.9436124,10.0524721 C56.3977979,10.1181906 58.7780866,12.1808006 58.9363546,12.2188065 C66.9547464,13.7865484 69.7737979,15.644085 70.1545814,15.9148768 C71.6918186,17.6599795 72.5215505,20.0179267 72.5474062,20.0876041 L73.1170144,21.5349941 L73.1170144,21.6323842 Z M62.8554474,32.2874868 C59.4714887,32.2874868 56.7213856,29.5075161 56.7213856,26.0909472 C56.7213856,22.6735865 59.4722722,19.8944076 62.8554474,19.8944076 C66.2378392,19.8944076 68.9902928,22.6743783 68.9902928,26.0909472 C68.9902928,29.5075161 66.2378392,32.2874868 62.8554474,32.2874868 L62.8554474,32.2874868 Z M10.8408907,32.2874868 C7.45849897,32.2874868 4.70839588,29.5083079 4.70839588,26.0909472 C4.70839588,22.6735865 7.46006598,19.8944076 10.8408907,19.8944076 C14.224066,19.8944076 16.9749526,22.6743783 16.9749526,26.0909472 C16.9749526,29.5075161 14.224066,32.2874868 10.8408907,32.2874868 L10.8408907,32.2874868 Z M13.3277361,2.67062463 C13.3277361,2.67062463 30.0853443,2.52335191 30.9526845,2.56452493 L30.9526845,7.59555132 L13.3277361,7.59555132 L13.3277361,2.67062463 Z M33.5609732,2.49168035 C35.809633,2.58115249 35.9412619,2.48772141 36.0039423,2.49168035 C42.3581691,2.48772141 48.8824165,6.30968622 51.1553649,7.59555132 L33.5609732,7.59555132 L33.5609732,2.49168035 Z M75.6422515,21.1446422 L74.9128082,19.2918563 C74.8728495,19.1738798 73.8864165,16.3559032 71.9464577,14.2085718 L71.8281485,14.0937625 C71.537468,13.8467243 68.7293856,11.6305073 59.4824577,9.82364516 C59.4746227,9.82126979 58.7044371,9.62094721 57.9554062,9.19734018 L46.672932,2.81631378 C46.5217155,2.72604985 42.8658804,0.566841642 36.4262515,0.340390029 C36.0392,0.311093842 30.6149938,-0.0950938416 23.7193649,0.0220909091 C21.5999835,0.0403020528 19.6106639,0.121856305 17.7608082,0.254876833 C14.2272,0.482120235 10.582334,0.880390029 7.20621031,1.55420235 L5.18711753,1.95405572 L6.47363299,3.61443695 C4.83845773,5.15209091 1.98649897,8.84103519 1.86583918,15.933088 C1.00946804,16.3820323 0.219694845,17.3345543 0.125674227,18.989393 C0.0990350515,19.2213871 -0.741665979,25.1415924 2.30773608,27.5122082 C2.98311753,31.66039 6.54649897,34.8386305 10.8408907,34.8386305 C14.3635299,34.8386305 18.2371794,32.3437038 19.5895093,29.286607 L54.9428289,29.286607 C56.2951588,32.3437038 59.3320247,34.8386305 62.8546639,34.8386305 C66.6264577,34.8386305 69.8341278,32.3864604 71.0187876,28.979393 L74.949633,27.3886891 L75.1353237,26.8281026 C75.1572619,26.7600088 75.6869113,25.1400088 75.6391175,23.1130293 L75.6422515,21.1446422 Z" id="Fill-1" fill="#001E46" mask="url(#mask-2)"></path>
                </g>
                <path d="M62.1814505,27.9571816 C61.271063,27.9571816 60.532752,27.1402274 60.532752,26.1282161 C60.532752,25.1178372 61.271063,24.3000668 62.1814505,24.3000668 C63.091838,24.3000668 63.830149,25.1178372 63.8308844,26.1282161 C63.8308844,27.1385951 63.0933087,27.9571816 62.1814505,27.9571816 M62.1814505,19.7419355 C59.0068602,19.7419355 56.4242424,22.6073964 56.4242424,26.1298484 C56.4242424,29.6514843 59.0061249,32.516129 62.1814505,32.516129 C65.3560408,32.516129 67.9393939,29.6514843 67.9393939,26.1298484 C67.9393939,22.6082125 65.3560408,19.7419355 62.1814505,19.7419355" id="Fill-4" fill="#FFFFFF"></path>
                <path d="M10.3640041,27.9571816 C9.45276486,27.9571816 8.71583046,27.1402274 8.71583046,26.1282161 C8.71583046,25.1178372 9.45276486,24.3000668 10.3640041,24.3000668 C11.2737724,24.3000668 12.0129132,25.1178372 12.0129132,26.1282161 C12.0129132,27.1385951 11.2737724,27.9571816 10.3640041,27.9571816 M10.3625332,19.7419355 C7.1890083,19.7419355 4.60606061,22.6073964 4.60606061,26.1298484 C4.60606061,29.6523004 7.18827284,32.516129 10.3625332,32.516129 C13.5389999,32.516129 16.1212121,29.6514843 16.1212121,26.1298484 C16.1212121,22.6082125 13.5389999,19.7419355 10.3625332,19.7419355" id="Fill-6" fill="#FFFFFF"></path>
                <path d="M10.9390086,24.3870968 C9.98425027,24.3870968 9.21212121,25.166128 9.21212121,26.1286435 C9.21212121,27.092714 9.98425027,27.8709677 10.9390086,27.8709677 C11.8922258,27.8709677 12.6666667,27.0919366 12.6666667,26.1286435 C12.6666667,25.166128 11.8922258,24.3870968 10.9390086,24.3870968" id="Fill-8" fill="#001E46"></path>
                <path d="M62.7571906,24.3870968 C61.8036283,24.3870968 61.030303,25.166128 61.030303,26.1286435 C61.030303,27.092714 61.8036283,27.8709677 62.7571906,27.8709677 C63.7122935,27.8709677 64.4848485,27.0919366 64.4848485,26.1286435 C64.4840782,25.166128 63.710753,24.3870968 62.7571906,24.3870968" id="Fill-10" fill="#001E46"></path>
                <path d="M69.5952293,16.2723494 C69.2160851,16.0063807 66.4091695,14.1819286 58.4252966,12.6421097 C58.2677099,12.6047807 55.8976683,10.5781302 54.449743,10.5143599 C53.0010375,10.4498119 10.4448265,10.5143599 10.4448265,10.5143599 C10.4448265,10.5143599 10.4385855,7.7590173 10.4393656,6.02399913 C10.4393656,5.37074262 10.4401458,4.84969279 10.4424862,4.64516129 C8.5701689,4.80069855 3.98689228,9.01575838 4.11483396,17.0671448 L4.13667766,18.3308851 L4.1351174,18.3308851 L4.13667766,18.4265405 L2.82059466,18.3876562 C2.59513646,18.4109868 2.4071246,18.7951638 2.37201865,19.4173128 C2.32989151,19.7773816 2.29946636,20.3077637 2.30336702,20.9213582 C2.31194847,21.5707262 2.3610968,22.3087506 2.48123716,23.0421088 C3.71462615,19.7999345 6.85543834,17.483207 10.536102,17.483207 C15.2910077,17.483207 19.1596832,21.338198 19.1596832,26.0766408 C19.1596832,26.3332772 19.1807468,26.3814938 19.1737256,26.534698 C19.1752859,26.5798038 19.1729455,26.638908 19.1674846,26.7096774 L53.1921699,26.7096774 C53.1921699,26.7096774 53.7047167,26.4102682 53.7047167,26.0766408 C53.7047167,21.338198 57.5726121,17.483207 62.3275178,17.483207 C67.06136,17.483207 70.9144328,21.3063129 70.9464183,26.0175366 L72.3093092,25.4739339 C72.4232085,24.9622163 72.5644124,24.1269812 72.5433489,23.1813146 L72.5449091,21.7923668 L71.977753,20.3707563 C71.9520087,20.3023199 71.1250685,17.98637 69.5952293,16.2723494" id="Fill-12" fill="#666B7F"></path>
            </g>
        </g>
    </g>
</svg>