<?xml version="1.0" encoding="UTF-8"?>
<svg width="43px" height="54px" viewBox="0 0 43 54" version="1.1" xmlns="http://www.w3.org/2000/svg" xmlns:xlink="http://www.w3.org/1999/xlink">
    <!-- Generator: Sketch 46.2 (44496) - http://www.bohemiancoding.com/sketch -->
    <title>Page 1</title>
    <desc>Created with Sketch.</desc>
    <defs>
        <polygon id="path-1" points="0 54 42.8487321 54 42.8487321 0.644957746 0 0.644957746"></polygon>
    </defs>
    <g id="01-Desktop" stroke="none" stroke-width="1" fill="none" fill-rule="evenodd">
        <g id="02C_Jog_Dashboard-Policy-" transform="translate(-554.000000, -460.000000)">
            <g id="Page-1" transform="translate(554.000000, 460.000000)">
                <path d="M6.49078721,38.5756379 C5.80499428,38.6053257 5.27410803,39.1724395 5.3036882,39.8430801 C5.33326838,40.5129594 5.91319543,41.0328771 6.59898837,41.0039505 C6.60132364,41.0039505 6.60443735,41.0031893 6.60677262,41.0031893 L19.01799,41.0031893 C19.703783,41.0130853 20.2673631,40.477943 20.2767042,39.8073024 C20.2868237,39.1366618 19.7395906,38.5855338 19.0537976,38.5756379 L19.01799,38.5756379 L6.60677262,38.5756379 C6.56862977,38.5741154 6.52970849,38.5741154 6.49078721,38.5756379 L6.49078721,38.5756379 Z M6.49078721,33.720535 C5.80499428,33.7517453 5.27566488,34.3211427 5.30758033,34.9910221 C5.33949578,35.6616627 5.92175811,36.1800579 6.60677262,36.1480864 L19.01799,36.1480864 C19.703783,36.1564599 20.2658062,35.6197952 20.2743689,34.9491546 C20.2829316,34.278514 19.7341416,33.7289085 19.0483486,33.720535 C19.0382291,33.720535 19.0281096,33.720535 19.01799,33.720535 L6.60677262,33.720535 C6.56862977,33.7190125 6.52970849,33.7190125 6.49078721,33.720535 L6.49078721,33.720535 Z M10.8344019,23.4028704 C10.1493874,23.4340807 9.61927961,24.0034781 9.65197348,24.6733575 C9.68388893,25.3439981 10.2653728,25.8616321 10.9503873,25.8304218 L32.0488342,25.8304218 C32.7346272,25.8403178 33.2982073,25.3044143 33.3083268,24.6345349 C33.3184463,23.9638943 32.7712132,23.4127663 32.0854202,23.4028704 C32.0737438,23.4028704 32.061289,23.4028704 32.0488342,23.4028704 L10.9503873,23.4028704 C10.9122445,23.4013479 10.8733232,23.4013479 10.8344019,23.4028704 L10.8344019,23.4028704 Z M10.8344019,17.3336111 C10.1493874,17.3655827 9.61927961,17.9342189 9.65197348,18.6048595 C9.68388893,19.2755001 10.2653728,19.7931341 10.9503873,19.7619238 L32.0488342,19.7619238 C32.7346272,19.7710585 33.2982073,19.2359163 33.3083268,18.5652757 C33.3184463,17.8953963 32.7712132,17.3435071 32.0854202,17.3336111 L32.0488342,17.3336111 L10.9503873,17.3336111 C10.9122445,17.3320887 10.8733232,17.3320887 10.8344019,17.3336111 L10.8344019,17.3336111 Z M14.0531917,3.375 L40.7368421,3.375 L40.7368421,49.5 L36.3932274,49.5 L36.3932274,42.2173457 C36.3940058,42.198315 36.3940058,42.1792843 36.3932274,42.1602537 C37.5476325,40.8760645 38.2552214,39.1967987 38.2552214,37.3614815 C38.2552214,33.3536238 34.9064345,30.0788272 30.8080239,30.0788272 C26.7103916,30.0788272 23.3616048,33.3536238 23.3616048,37.3614815 C23.3616048,39.1967987 24.0684152,40.8760645 25.2235988,42.1602537 C25.2228203,42.1792843 25.2228203,42.198315 25.2235988,42.2173457 L25.2235988,49.5 L2.26315789,49.5 L2.26315789,14.9060597 L12.8123813,14.9060597 C13.4973958,14.9060597 14.0531917,14.3625439 14.0531917,13.6926646 L32.0488342,13.6926646 C32.7346272,13.7017993 33.2982073,13.166657 33.3083268,12.4960165 C33.3184463,11.8253759 32.7712132,11.2742479 32.0854202,11.2651131 C32.0737438,11.2643519 32.061289,11.2643519 32.0488342,11.2651131 L14.0531917,11.2651131 L14.0531917,3.375 Z" id="Fill-1" fill="#666B7F"></path>
                <path d="M11.1181521,16.7525508 L11.1423999,17.2659222 C10.757466,17.2842296 10.4589149,17.6145265 10.4771008,18.0020342 C10.4861937,18.1896855 10.5665146,18.3628435 10.7044239,18.48947 C10.8430911,18.6160965 11.0257073,18.6809354 11.2075658,18.6717817 L31.7689441,18.6710189 C32.1766103,18.6748329 32.4789501,18.3658947 32.4842543,17.9791498 C32.4895585,17.592405 32.1811567,17.2727874 31.7969806,17.266685 L11.2310559,17.266685 L11.1181521,16.7525508 Z M11.1552815,19.7015757 C10.7453421,19.7015757 10.3361604,19.5429111 10.0163926,19.2492291 C9.67692333,18.9380025 9.47763671,18.5123543 9.45641988,18.0500912 C9.411713,17.0965783 10.1467245,16.2834224 11.0939043,16.2391794 L11.0984507,16.2384166 C11.1492196,16.236891 11.1999884,16.236891 11.251515,16.2384166 L31.7689441,16.2384166 C32.760073,16.25291 33.5193323,17.0401303 33.5056929,17.9936432 C33.499631,18.4559063 33.3139837,18.8884198 32.9843652,19.2103258 C32.6555044,19.5329946 32.2266214,19.696236 31.7621244,19.70005 L11.2310559,19.70005 C11.2060503,19.7008129 11.1810448,19.7015757 11.1552815,19.7015757 L11.1552815,19.7015757 Z M11.1416421,23.3478092 C10.9559949,23.356963 10.783987,23.4385837 10.6582016,23.5774152 C10.5324161,23.7162467 10.4687656,23.8962699 10.4771008,24.0831584 C10.4861937,24.2715726 10.5665146,24.4439677 10.7044239,24.5713571 C10.8430911,24.6972208 11.0257073,24.7643481 11.2075658,24.7536688 L31.7689441,24.7529059 C32.1766103,24.7490919 32.4789501,24.4477818 32.4842543,24.0610369 C32.4872852,23.8733856 32.4168151,23.6964136 32.2872409,23.5613961 C32.1576667,23.4271415 31.9833856,23.3516233 31.7969806,23.3485721 L11.1416421,23.3478092 Z M11.1552815,25.7834628 C10.7453421,25.7834628 10.3361604,25.6247982 10.0163926,25.3311162 C9.67692333,25.0198896 9.47763671,24.5934786 9.45641988,24.1312155 C9.43444531,23.6697152 9.59357151,23.2265224 9.90273099,22.8847833 C10.2118905,22.5422815 10.6354693,22.3424252 11.094662,22.3210665 C11.1492196,22.3180152 11.2030194,22.3180152 11.2568192,22.3210665 L31.7689441,22.3203037 C32.760073,22.3340343 33.5193323,23.1220174 33.5056929,24.0762931 C33.4920535,25.0305689 32.7312788,25.8048214 31.7621244,25.7811743 L11.2310559,25.7811743 C11.2060503,25.7826999 11.1810448,25.7834628 11.1552815,25.7834628 L11.1552815,25.7834628 Z M6.91343166,33.686941 C6.72702668,33.6960947 6.55577658,33.7769526 6.42999111,33.9157841 C6.30420563,34.0553784 6.23979741,34.2346389 6.24813259,34.423053 C6.25722552,34.6099416 6.33830411,34.7830995 6.47621348,34.909726 C6.61412285,35.0363526 6.79295039,35.1027171 6.97935537,35.0920377 L19.0843127,35.0920377 C19.4593959,35.0958518 19.7912877,34.7853879 19.7965919,34.3978803 C19.7988651,34.2109917 19.728395,34.0332569 19.598063,33.8997651 C19.4684888,33.7655105 19.2942078,33.6899923 19.107045,33.6877038 L6.91343166,33.686941 Z M6.9263133,36.1225945 C6.5163739,36.1225945 6.10794999,35.96393 5.7881821,35.670248 C5.44871287,35.3590213 5.24942625,34.9326103 5.22820942,34.4711101 C5.20623485,34.008847 5.36460331,33.5656542 5.67452053,33.2239151 C5.98368,32.8814133 6.40725879,32.6807941 6.86645154,32.6601982 C6.92025135,32.657147 6.97480891,32.657147 7.02860872,32.6601982 L19.0843127,32.6594354 C19.5791194,32.6647751 20.0087602,32.850138 20.3292858,33.1811977 C20.6505692,33.5114946 20.8240925,33.948585 20.8180306,34.4108481 C20.8059067,35.3582585 20.0367967,36.1203061 19.0994676,36.1203061 L19.077493,36.1203061 L7.00284543,36.1203061 C6.97783988,36.1218317 6.95131885,36.1225945 6.9263133,36.1225945 L6.9263133,36.1225945 Z M6.8899416,38.0387742 L6.91191617,38.5521456 C6.52698231,38.5696902 6.22767351,38.8984615 6.24434387,39.2859691 C6.26101424,39.6734768 6.60124121,39.9793638 6.97253567,39.9580051 L19.0843127,39.9572423 C19.5003141,39.9572423 19.7935609,39.6528809 19.7988651,39.2653733 C19.8041694,38.8786284 19.4965254,38.558248 19.1115915,38.5529084 L7.00284543,38.5529084 L6.8899416,38.0387742 Z M6.92934428,40.9877991 C6.02762914,40.9877991 5.26382338,40.2593152 5.22366296,39.3309749 C5.18274479,38.3766992 5.92002952,37.5665946 6.86796703,37.52464 L6.87024026,37.52464 C6.92100909,37.5231144 6.97177793,37.5231144 7.02330451,37.52464 L19.0843127,37.5238772 C20.0746839,37.5391334 20.8347009,38.3263537 20.8210615,39.2806295 C20.8074222,40.2349052 20.0367967,40.983985 19.0767353,40.9862734 L7.00284543,40.9862734 C6.97859762,40.9870363 6.95359208,40.9877991 6.92934428,40.9877991 L6.92934428,40.9877991 Z M36.5086316,48.4717316 L39.7154034,48.4717316 L39.7154034,3.27903119 L14.7628998,3.27903119 L14.7628998,10.1565295 L31.7689441,10.1565295 C32.760073,10.1702601 33.5193323,10.9582432 33.5056929,11.912519 C33.4920535,12.8667947 32.7312788,13.6036696 31.7621244,13.618163 L14.6848522,13.618163 C14.466622,14.3214741 13.8134468,14.8340827 13.0435791,14.8340827 L3.28535429,14.8340827 L3.28535429,48.4717316 L24.6143271,48.4717316 L24.6143271,41.820788 C23.4443706,40.4134029 22.8018039,38.6459712 22.8018039,36.8220916 C22.8018039,32.5145015 26.2828789,29.0093878 30.5611005,29.0093878 C34.8400798,29.0093878 38.3211548,32.5145015 38.3211548,36.8220916 C38.3211548,38.6452084 37.6785881,40.4126401 36.5086316,41.820788 L36.5086316,48.4717316 Z M40.7368421,49.5 L35.487193,49.5 L35.487193,41.4935423 L35.6144939,41.2906348 C36.7010986,40.0472539 37.2989584,38.4606083 37.2989584,36.8220916 C37.2989584,33.0812696 34.2763184,30.038419 30.5611005,30.038419 C26.8458826,30.038419 23.8240003,33.0812696 23.8240003,36.8220916 C23.8240003,38.4606083 24.4218601,40.0480167 25.5084648,41.2906348 L25.6433432,41.4454853 L25.6357657,41.6506813 L25.6357657,49.5 L2.26315789,49.5 L2.26315789,13.8058143 L13.0435791,13.8058143 C13.4277552,13.8058143 13.7407034,13.4907736 13.7407034,13.103266 L13.7407034,12.5891318 L31.7689441,12.5891318 C32.1766103,12.5998111 32.4789501,12.2847704 32.4842543,11.8972628 C32.4872852,11.7096114 32.4168151,11.5326394 32.2872409,11.397622 C32.1576667,11.2633673 31.9833856,11.1878491 31.7969806,11.1855607 L13.7407034,11.1855607 L13.7407034,2.25 L40.7368421,2.25 L40.7368421,49.5 Z" id="Fill-3" fill="#666B7F"></path>
                <g id="Group-7">
                    <mask id="mask-2" fill="white">
                        <use xlink:href="#path-1"></use>
                    </mask>
                    <g id="Clip-6"></g>
                    <path d="M27.5453393,43.6237099 C28.4798214,44.051907 29.5125893,44.3059352 30.6060179,44.3059352 C31.7002143,44.3059352 32.7314464,44.051907 33.6666964,43.6237099 L33.6666964,50.6916254 L31.218,49.3089211 C30.8394464,49.0914 30.3725893,49.0914 29.9940357,49.3089211 L27.5453393,50.6916254 L27.5453393,43.6237099 Z M6.61892857,38.2419634 C5.94244643,38.2708648 5.418,38.8382451 5.44717857,39.5075408 C5.477125,40.1775972 6.04917857,40.697062 6.72489286,40.6681606 C6.72796429,40.6681606 6.73103571,40.6674 6.73333929,40.6674 L18.9752857,40.6674 C19.6517679,40.6772873 20.2076964,40.1418507 20.2176786,39.4725549 C20.2276607,38.8024986 19.6878571,38.2518507 19.011375,38.2419634 L18.9752857,38.2419634 L6.73333929,38.2419634 C6.69494643,38.2404423 6.65655357,38.2404423 6.61892857,38.2419634 L6.61892857,38.2419634 Z M6.61892857,33.3910901 C5.94244643,33.4222732 5.42030357,33.9904141 5.45178571,34.6604704 C5.48326786,35.3305268 6.057625,35.8477099 6.73333929,35.8165268 L18.9752857,35.8165268 C19.6517679,35.824893 20.2069286,35.2886958 20.215375,34.6186394 C20.2230536,33.9485831 19.6817143,33.3994563 19.0052321,33.3910901 C18.9960179,33.3903296 18.9860357,33.3903296 18.9752857,33.3910901 L6.73333929,33.3910901 C6.69494643,33.3888085 6.65655357,33.3888085 6.61892857,33.3910901 L6.61892857,33.3910901 Z M30.6060179,32.1779915 C33.325,32.1779915 35.5026429,34.3357099 35.5026429,37.0296254 C35.5026429,39.7227803 33.325,41.8804986 30.6060179,41.8804986 C27.8870357,41.8804986 25.708625,39.7227803 25.708625,37.0296254 C25.708625,34.3357099 27.8870357,32.1779915 30.6060179,32.1779915 L30.6060179,32.1779915 Z M10.9035714,23.0824141 C10.2270893,23.1135972 9.70494643,23.6824986 9.73642857,24.3517944 C9.76867857,25.0218507 10.3422679,25.5390338 11.0179821,25.5078507 L31.83075,25.5078507 C32.5064643,25.517738 33.0623929,24.9823014 33.072375,24.3130056 C33.0815893,23.6429493 32.5417857,23.0923014 31.8653036,23.0824141 C31.8537857,23.0824141 31.8422679,23.0824141 31.83075,23.0824141 L11.0179821,23.0824141 C10.9795893,23.080893 10.9411964,23.080893 10.9035714,23.0824141 L10.9035714,23.0824141 Z M10.9035714,17.0184423 C10.2270893,17.0503859 9.70494643,17.6185268 9.73642857,18.2878225 C9.76867857,18.9578789 10.3422679,19.4758225 11.0179821,19.4438789 L31.83075,19.4438789 C32.5064643,19.4537662 33.0623929,18.9190901 33.072375,18.2490338 C33.0815893,17.5789775 32.5417857,17.0283296 31.8653036,17.0184423 L31.83075,17.0184423 L11.0179821,17.0184423 C10.9795893,17.0169211 10.9411964,17.0169211 10.9035714,17.0184423 L10.9035714,17.0184423 Z M11.6299643,4.68210423 L11.6299643,12.167569 L3.69185714,12.167569 L11.6299643,4.68210423 Z M14.0786607,3.07199155 L40.4000357,3.07199155 L40.4000357,49.1568085 L36.1153929,49.1568085 L36.1153929,41.8804986 C36.1153929,41.8614845 36.1153929,41.8424704 36.1153929,41.8234563 C37.254125,40.5403859 37.9513393,38.8625831 37.9513393,37.0288648 C37.9513393,33.0244986 34.6480179,29.7525549 30.6060179,29.7525549 C26.5640179,29.7525549 23.2606964,33.0244986 23.2606964,37.0288648 C23.2606964,38.8625831 23.9579107,40.5403859 25.0974107,41.8234563 C25.0966429,41.8424704 25.0966429,41.8614845 25.0974107,41.8804986 L25.0974107,49.1568085 L2.44869643,49.1568085 L2.44869643,14.5930056 L12.8546964,14.5930056 C13.5304107,14.5930056 14.0786607,14.0499634 14.0786607,13.379907 L31.83075,13.379907 C32.5064643,13.3897944 33.0623929,12.8551183 33.072375,12.185062 C33.0815893,11.5150056 32.5417857,10.9643577 31.8653036,10.9544704 C31.8537857,10.9544704 31.8422679,10.9544704 31.83075,10.9544704 L14.0786607,10.9544704 L14.0786607,3.07199155 Z M12.7395179,0.64655493 C12.4676964,0.670132394 12.212,0.783456338 12.0123571,0.968273239 L0.382392857,11.9401606 C0.135910714,12.1713718 -0.00230357143,12.4938507 -4.26057572e-17,12.8307803 L-4.26057572e-17,50.369907 C-4.26057572e-17,51.0399634 0.54825,51.5822451 1.22396429,51.5822451 L25.0974107,51.5822451 L25.0974107,52.7953437 C25.10125,53.4646394 25.6533393,54.0038789 26.3298214,54.0000761 C26.54175,53.9985549 26.7498393,53.9422732 26.9333571,53.8373155 L30.6060179,51.7526113 L34.2786786,53.8373155 C34.8645536,54.1719634 35.6132143,53.9734563 35.9510714,53.3931465 C36.0570357,53.2113718 36.1138571,53.0052592 36.1153929,52.7953437 L36.1153929,51.5822451 L41.624,51.5822451 C42.3004821,51.5822451 42.8487321,51.0399634 42.8487321,50.369907 L42.8487321,1.85889296 C42.8487321,1.18959718 42.3004821,0.64655493 41.624,0.64655493 L12.8546964,0.64655493 C12.8163036,0.644273239 12.7779107,0.644273239 12.7395179,0.64655493 L12.7395179,0.64655493 Z" id="Fill-5" fill="#001E46" mask="url(#mask-2)"></path>
                </g>
            </g>
        </g>
    </g>
</svg>