<?xml version="1.0" encoding="UTF-8"?>
<svg width="63px" height="58px" viewBox="0 0 63 58" version="1.1" xmlns="http://www.w3.org/2000/svg" xmlns:xlink="http://www.w3.org/1999/xlink">
    <!-- Generator: Sketch 46.2 (44496) - http://www.bohemiancoding.com/sketch -->
    <title>Page 1</title>
    <desc>Created with Sketch.</desc>
    <defs>
        <polygon id="path-1" points="62.4859773 57.9461424 62.4859773 0.238653439 7.15909091e-05 0.238653439 7.15909091e-05 57.9461424 62.4859773 57.9461424"></polygon>
        <polygon id="path-3" points="0 59 63 59 63 1.05357143 0 1.05357143"></polygon>
    </defs>
    <g id="01-Desktop" stroke="none" stroke-width="1" fill="none" fill-rule="evenodd">
        <g id="02C_Jog_Dashboard-Policy-" transform="translate(-546.000000, -363.000000)">
            <g id="Page-1" transform="translate(546.000000, 363.000000)">
                <g id="Group-3">
                    <mask id="mask-2" fill="white">
                        <use xlink:href="#path-1"></use>
                    </mask>
                    <g id="Clip-2"></g>
                    <path d="M15.5610716,20.6851581 L27.583333,8.14655247 L37.1836739,8.14655247 L49.2975716,20.7559815 L49.2975716,55.9387637 L33.3986625,55.9387637 L33.3986625,29.5924541 L15.4801739,29.5924541 L15.4801739,21.0886369 C15.534583,20.9612978 15.5617875,20.8239433 15.5610716,20.6851581 L15.5610716,20.6851581 Z M15.4801739,33.2137482 L31.379083,33.2137482 L31.379083,31.6098483 L15.4801739,31.6098483 L15.4801739,33.2137482 Z M21.4966739,47.0836909 L31.379083,47.0836909 L31.379083,35.2311424 L21.4966739,35.2311424 L21.4966739,47.0836909 Z M15.4801739,47.0836909 L19.5179011,47.0836909 L19.5179011,35.2311424 L15.4801739,35.2311424 L15.4801739,47.0836909 Z M51.3157193,55.9287482 L51.3157193,22.7833911 L54.5566398,26.0212372 C54.979742,26.3839389 55.6169011,26.3345772 55.979867,25.9110675 C56.303458,25.534058 56.303458,24.9767707 55.979867,24.5990459 L51.0637193,19.6564301 L32.3885148,0.238653439 L26.7256739,6.12915829 L13.542208,6.12915829 L13.542208,19.8481541 L8.78785568,24.5990459 C8.3640375,24.9617476 8.31463977,25.5984429 8.67760568,26.0212372 C9.03985568,26.4447469 9.67701477,26.4941087 10.100833,26.131407 C10.140208,26.0977837 10.1767193,26.0605836 10.211083,26.0212372 L13.4512875,22.7833911 L13.4512875,55.9387637 L1.00950341,55.9287482 C0.451810227,55.9287482 7.15909091e-05,56.3801581 7.15909091e-05,56.9374453 C7.15909091e-05,57.4947326 0.451810227,57.9461424 1.00950341,57.9461424 L61.5775602,57.9461424 C62.1323898,57.8910575 62.5368784,57.396009 62.4810375,56.8422987 C62.4330716,56.3644195 62.0550716,55.9866947 61.5775602,55.9387637 L51.3157193,55.9287482 Z" id="Fill-1" fill="#001E46" mask="url(#mask-2)"></path>
                </g>
                <mask id="mask-4" fill="white">
                    <use xlink:href="#path-3"></use>
                </mask>
                <g id="Clip-5"></g>
                <path d="M35.1069479,48.9461883 L47.6012522,48.9461883 L47.6012522,33.2949609 L35.1069479,33.2949609 L35.1069479,48.9461883 Z M24.7017518,25.8703151 C24.1310615,25.8703151 23.6674672,25.4225086 23.6674672,24.8696698 C23.6674672,24.316831 24.1310615,23.8690245 24.7017518,23.8690245 L26.615545,23.8690245 L26.615545,17.2747013 C26.615545,14.5857333 28.8682315,12.4063138 31.6475962,12.4063138 C34.4262273,12.4063138 36.6796473,14.5857333 36.6796473,17.2747013 L36.6796473,23.8690245 L38.665327,23.8690245 C39.2360173,23.8690245 39.6996115,24.316831 39.6996115,24.8696698 C39.6996115,25.4225086 39.2360173,25.8703151 38.665327,25.8703151 L24.7017518,25.8703151 Z M37.2328308,8.12633841 L27.396858,8.12633841 L14.7828895,20.8670888 C14.7843565,21.0040565 14.8386381,21.1938373 14.7828895,21.3201599 L14.7,29.7025735 L33.0596513,29.7025735 L33.0596513,55.9557419 L49.35,55.9557419 L49.35,20.7048907 L37.2328308,8.12633841 Z" id="Fill-4" fill="#666B7F" mask="url(#mask-4)"></path>
                <path d="M37.7860682,47.4970867 L40.9151706,47.4970867 L40.9151706,35.7350562 L37.7860682,35.7350562 L37.7860682,47.4970867 Z M43.0019785,47.4970867 L46.1303411,47.4970867 L46.1303411,35.7350562 L43.0019785,35.7350562 L43.0019785,47.4970867 Z M35.7,49.5178571 L48.3,49.5178571 L48.3,33.7142857 L35.7,33.7142857 L35.7,49.5178571 Z" id="Fill-6" fill="#001E46" mask="url(#mask-4)"></path>
                <path d="M34.9211956,24.2731262 L34.901018,24.2731262 L29.0985382,24.2731262 L29.0985382,17.595287 C29.0985382,15.9846644 30.4021504,14.6786957 32.0098669,14.6786957 C33.6175833,14.6786957 34.9211956,15.9846644 34.9211956,17.595287 L34.9211956,24.2731262 Z M39.9,25.3213664 C39.9,24.759706 39.445285,24.3034472 38.8839175,24.3034472 L36.9331831,24.3034472 L36.9331831,17.595287 C36.9331831,14.8598997 34.7201409,12.6428571 31.9896893,12.6428571 C29.2599584,12.6428571 27.0461956,14.8598997 27.0461956,17.595287 L27.0461956,24.3034472 L25.1660825,24.3034472 C24.6054356,24.3034472 24.15,24.759706 24.15,25.3213664 C24.15,25.8837488 24.6054356,26.3392857 25.1660825,26.3392857 L38.8839175,26.3392857 C39.445285,26.3392857 39.9,25.8837488 39.9,25.3213664 L39.9,25.3213664 Z" id="Fill-7" fill="#001E46" mask="url(#mask-4)"></path>
            </g>
        </g>
    </g>
</svg>