<?xml version="1.0" encoding="UTF-8"?>
<svg width="56px" height="41px" viewBox="0 0 56 41" version="1.1" xmlns="http://www.w3.org/2000/svg" xmlns:xlink="http://www.w3.org/1999/xlink">
    <!-- Generator: Sketch 46.2 (44496) - http://www.bohemiancoding.com/sketch -->
    <title>Page 1</title>
    <desc>Created with Sketch.</desc>
    <defs></defs>
    <g id="01-Desktop" stroke="none" stroke-width="1" fill="none" fill-rule="evenodd">
        <g id="02C_Jog_Dashboard-Add-Policy" transform="translate(-69.000000, -465.000000)">
            <g id="Page-1" transform="translate(69.000000, 465.000000)">
                <g id="Group-7" transform="translate(0.000000, 4.000000)"></g>
                <path d="M27.4992025,33.4049001 C33.5127289,33.4049001 38.4049001,28.5127289 38.4049001,22.5007975 C38.4049001,16.4872711 33.5127289,11.5950999 27.4992025,11.5950999 C21.485676,11.5950999 16.5950999,16.4872711 16.5950999,22.5007975 C16.5950999,28.5127289 21.485676,33.4049001 27.4992025,33.4049001 Z M27.4992025,10 C34.3916289,10 40,15.6083711 40,22.5007975 C40,29.3916289 34.3916289,35 27.4992025,35 C20.606776,35 15,29.3916289 15,22.5007975 C15,15.6083711 20.606776,10 27.4992025,10 Z" id="Fill-1" fill="#192142"></path>
                <path d="M47,15.4239559 C45.6871552,15.4239559 44.5760441,14.3144208 44.5760441,13 C44.5760441,11.6871552 45.6871552,10.5760441 47,10.5760441 C48.3128448,10.5760441 49.4239559,11.6871552 49.4239559,13 C49.4239559,14.3144208 48.3128448,15.4239559 47,15.4239559 M47,9 C44.7951143,9 43,10.7951143 43,13 C43,15.2064618 44.7951143,17 47,17 C49.2048857,17 51,15.2064618 51,13 C51,10.7951143 49.2048857,9 47,9" id="Fill-3" fill="#192142"></path>
                <path d="M54.2082667,36.9813417 C54.2082667,38.346175 53.1395167,39.4165083 51.7731,39.4165083 L4.01818333,39.4165083 C2.65176667,39.4165083 1.58301667,38.346175 1.58301667,36.9813417 L1.58301667,8.58584167 C1.58301667,7.22100833 2.65176667,6.150675 4.01818333,6.150675 L51.7731,6.150675 C53.1395167,6.150675 54.2082667,7.22100833 54.2082667,8.58584167 L54.2082667,36.9813417 Z M51.7731,4.56734167 L4.01818333,4.56734167 C1.7651,4.56734167 -0.000316666667,6.33275833 -0.000316666667,8.58584167 L-0.000316666667,36.9813417 C-0.000316666667,39.234425 1.7651,40.9998417 4.01818333,40.9998417 L51.7731,40.9998417 C54.0261833,40.9998417 55.7916,39.234425 55.7916,36.9813417 L55.7916,8.58584167 C55.7916,6.33275833 54.0261833,4.56734167 51.7731,4.56734167 L51.7731,4.56734167 Z" id="Fill-5" fill="#192142"></path>
                <path d="M28,27.4044675 C25.5719224,27.4044675 23.5953204,25.4291982 23.5953204,22.9992022 C23.5953204,20.5708018 25.5719224,18.5955325 28,18.5955325 C30.4280776,18.5955325 32.4046796,20.5708018 32.4046796,22.9992022 C32.4046796,25.4291982 30.4280776,27.4044675 28,27.4044675 M28,17 C24.6913055,17 22,19.6916633 22,22.9992022 C22,26.3083367 24.6913055,29 28,29 C31.3086945,29 34,26.3083367 34,22.9992022 C34,19.6916633 31.3086945,17 28,17" id="Fill-8" fill="#192142"></path>
                <polygon id="Fill-10" fill="#192142" points="7 2 17 2 17 0 7 0"></polygon>
            </g>
        </g>
    </g>
</svg>