<?xml version="1.0" encoding="UTF-8"?>
<svg width="23px" height="30px" viewBox="0 0 23 30" version="1.1" xmlns="http://www.w3.org/2000/svg" xmlns:xlink="http://www.w3.org/1999/xlink">
    <!-- Generator: Sketch 46.2 (44496) - http://www.bohemiancoding.com/sketch -->
    <title>driver</title>
    <desc>Created with Sketch.</desc>
    <defs>
        <polygon id="path-1" points="0.365325 6 5.806575 6 5.806575 0.069375 0.365325 0.069375 0.365325 6"></polygon>
    </defs>
    <g id="01-Desktop" stroke="none" stroke-width="1" fill="none" fill-rule="evenodd">
        <g id="02E_Jog_Dashboard-Motors-Policy-Quote-Copy-4" transform="translate(-195.000000, -458.000000)">
            <g id="driver" transform="translate(195.000000, 458.000000)">
                <g id="Group-3" transform="translate(6.000000, 0.000000)" fill="#666B7F">
                    <path d="M5.41325714,0.52206 C8.3369,0.52206 10.7066143,2.84672667 10.7066143,5.71332667 C10.7066143,8.58066 8.3369,10.9053267 5.41325714,10.9053267 C2.48961429,10.9053267 0.1199,8.58066 0.1199,5.71332667 C0.1199,2.84672667 2.48961429,0.52206 5.41325714,0.52206" id="Fill-1"></path>
                </g>
                <g id="Group-6" transform="translate(5.000000, 24.000000)">
                    <mask id="mask-2" fill="white">
                        <use xlink:href="#path-1"></use>
                    </mask>
                    <g id="Clip-5"></g>
                    <path d="M5.806575,3.562875 C5.806575,3.562875 4.899075,3.061875 4.851825,2.358375 L0.723825,0.069375 C0.555075,0.640125 0.365325,1.102125 0.365325,1.726875 C0.365325,3.435375 0.941325,4.498125 2.038575,6.000375 C3.228825,5.998875 3.228075,5.998875 5.806575,5.998875 L5.806575,3.562875 Z" id="Fill-4" fill="#666B7F" mask="url(#mask-2)"></path>
                </g>
                <path d="M13.131294,26.4091022 C13.0785057,27.1126585 12,27.5886595 12,27.5886595 L12,30 L16.0825663,30 C17.2698971,28.5055956 18,27.4498881 18,25.7488187 C18,25.1176324 17.9277206,24.5782144 17.7417434,24 L13.131294,26.4091022 Z" id="Fill-7" fill="#666B7F"></path>
                <g id="Group-11" transform="translate(0.000000, 12.000000)" fill="#666B7F">
                    <path d="M14.5823067,0.3825 C13.66844,-0.1785 11.1928733,3.19275 11.1928733,3.19275 C11.1928733,3.19275 8.83920667,-0.186 7.96367333,0.30375 C1.90547333,3.6885 -1.20336,14.99625 0.432706667,17.99925 L4.73830667,17.99925 C3.86584,16.497 3.35600667,15.36 3.35600667,13.72575 C3.35600667,9.37725 6.97160667,5.91075 11.4159733,5.91075 C15.8588067,5.91075 19.47364,9.34275 19.47364,13.6905 C19.47364,15.324 18.9638067,16.497 18.0921067,17.99925 L22.3041733,17.99925 C24.2745067,14.99625 20.4779733,4.02075 14.5823067,0.3825" id="Fill-9"></path>
                </g>
                <path d="M11.5100345,20 C9.150821,20 7.09264139,21.2752414 6,23.1621305 L10.1773093,25 C10.5125346,24.6524729 10.9837827,24.4344454 11.5092912,24.4344454 C12.0295966,24.4344454 12.4971282,24.6488147 12.8330968,24.991952 L17,23.1292069 C15.9028988,21.2613404 13.8543821,20 11.5100345,20" id="Fill-12" fill="#666B7F"></path>
            </g>
        </g>
    </g>
</svg>