<?xml version="1.0" encoding="UTF-8"?>
<svg width="28px" height="29px" viewBox="0 0 28 29" version="1.1" xmlns="http://www.w3.org/2000/svg" xmlns:xlink="http://www.w3.org/1999/xlink">
    <!-- Generator: Sketch 46.2 (44496) - http://www.bohemiancoding.com/sketch -->
    <title>Page 1</title>
    <desc>Created with Sketch.</desc>
    <defs></defs>
    <g id="01-Desktop" stroke="none" stroke-width="1" fill="none" fill-rule="evenodd">
        <g id="02E_Jog_Dashboard-Motors-Policy-Quote-Copy-4" transform="translate(-191.000000, -546.000000)" fill="#666B80">
            <g id="Page-1" transform="translate(191.000000, 546.000000)">
                <g id="Group-5">
                    <path d="M25.7920333,26.8497174 C25.6760333,27.0112407 25.4913667,27.1063337 25.2943667,27.1063337 L14.9323667,27.1063337 L14.9323667,25.291136 L25.5577,25.291136 L25.8670333,26.2983802 L25.8670333,26.2997291 C25.9260333,26.4892407 25.8923667,26.6956128 25.7763667,26.8557872 L25.7920333,26.8497174 Z M1.97536667,26.8497174 C1.85936667,26.6858337 1.82803333,26.4744035 1.89203333,26.2838802 L2.9627,23.1009616 L8.55403333,23.1009616 L8.3317,27.1225198 L2.4767,27.1225198 C2.27603333,27.1184733 2.08903333,27.0173105 1.97536667,26.8497174 L1.97536667,26.8497174 Z M5.13603333,17.9602058 L9.83503333,17.9602058 L13.1817,22.49095 C13.3567,22.729357 13.6323667,22.8686244 13.9257,22.8686244 C14.2180333,22.8686244 14.4937,22.729357 14.6690333,22.49095 L18.0157,17.9602058 L22.8473667,17.9602058 C23.1180333,17.9602058 23.3570333,18.1372407 23.4380333,18.3989151 L23.9240333,19.9635663 L18.5507,19.9635663 L18.5507,21.8408105 L24.4953667,21.8408105 L24.9777,23.4054616 L14.0043667,23.4054616 C13.4920333,23.4054616 13.0763667,23.8259616 13.0763667,24.3439151 L13.0763667,27.1221826 L10.1897,27.1221826 L10.4750333,22.2157872 C10.4897,21.9581593 10.3977,21.7052523 10.2223667,21.5181012 C10.0473667,21.3296012 9.80203333,21.2233802 9.54736667,21.2233802 L3.5927,21.2233802 L4.5487,18.3830663 C4.63436667,18.1288105 4.87103333,17.958857 5.1357,17.9598686 L5.13603333,17.9602058 Z M7.2557,8.60500814 C7.4657,5.40758953 10.0210333,2.09046163 13.9270333,2.09046163 C17.8333667,2.09046163 20.3730333,5.40758953 20.5953667,8.60500814 C20.6827,10.2866709 20.1717,11.9440547 19.1580333,13.2800779 L13.9273667,20.3631593 L8.69336667,13.2800779 C7.6797,11.9440547 7.1697,10.2866709 7.2557,8.60500814 L7.2557,8.60500814 Z M27.6420333,25.7426593 L25.2047,17.8418453 C24.8833667,16.7978453 23.9290333,16.0853221 22.8477,16.0829616 L19.4053667,16.0829616 L20.6427,14.4023105 L20.6427,14.4036593 C21.9223667,12.7095198 22.5613667,10.6083686 22.4453667,8.4802407 C22.1420333,3.84900814 18.4000333,0.212880233 13.9270333,0.212880233 C9.45436667,0.212880233 5.70903333,3.84900814 5.40303333,8.4802407 C5.28703333,10.6083686 5.92603333,12.7095198 7.2057,14.4036593 L8.44303333,16.0843105 L5.13603333,16.0829616 C4.0777,16.0843105 3.13636667,16.765136 2.79603333,17.7794616 L0.135366667,25.6802756 C-0.125633333,26.4454035 -0.00496666667,27.2914616 0.460366667,27.9500314 C0.924033333,28.60995 1.6757,29.0011128 2.47703333,29.0001012 L25.2787,29.0001012 C26.0677,29.0011128 26.8107,28.6210779 27.2770333,27.978357 C27.7443667,27.3342872 27.8800333,26.5040779 27.6420333,25.7426593 L27.6420333,25.7426593 Z M13.8776333,6.40869651 C14.8429667,6.40026628 15.7179667,6.98060349 16.0936333,7.88027791 C16.4693,8.77995233 16.2699667,9.81990581 15.5909667,10.5128709 C14.9123,11.2071849 13.8859667,11.4176035 12.9933,11.0459988 C12.1006333,10.6743942 11.5179667,9.79427791 11.5179667,8.81771977 C11.5119667,7.49417326 12.5693,6.41476628 13.8776333,6.40869651 M13.8776333,13.1039872 C15.5933,13.1127547 17.1446333,12.0751616 17.8079667,10.4737547 C18.4699667,8.87268488 18.1136333,7.02477791 16.9029667,5.79362674 C15.6936333,4.56416163 13.8693,4.19255698 12.2826333,4.85517326 C10.6963,5.51745233 9.6623,7.08210349 9.6623,8.81771977 C9.65863333,11.1778477 11.5443,13.095557 13.8776333,13.1039872" id="Fill-3"></path>
                </g>
            </g>
        </g>
    </g>
</svg>