<?xml version="1.0" encoding="UTF-8"?>
<svg width="24px" height="22px" viewBox="0 0 24 22" version="1.1" xmlns="http://www.w3.org/2000/svg" xmlns:xlink="http://www.w3.org/1999/xlink">
    <!-- Generator: Sketch 46.2 (44496) - http://www.bohemiancoding.com/sketch -->
    <title>Page 1</title>
    <desc>Created with Sketch.</desc>
    <defs></defs>
    <g id="01-Desktop" stroke="none" stroke-width="1" fill="none" fill-rule="evenodd">
        <g id="02E_Jog_Dashboard-Motors-Policy-Quote-Copy-4" transform="translate(-193.000000, -640.000000)" fill="#666B82">
            <g id="Page-1" transform="translate(193.000000, 640.000000)">
                <g id="Group-9">
                    <path d="M5.0368,0.876916667 L5.0368,4.07691667 C5.0368,4.57123485 5.45305,4.94964394 5.9968,4.94964394 C6.54055,4.94964394 6.9568,4.57123485 6.9568,4.07691667 L6.9568,0.876916667 C6.9568,0.382598485 6.54055,0.00418939394 5.9968,0.00418939394 C5.45305,0.00418939394 5.0368,0.382598485 5.0368,0.876916667" id="Fill-1"></path>
                    <path d="M18.0734667,0.876916667 L18.0734667,4.07691667 C18.0734667,4.57123485 18.4897167,4.94964394 19.0334667,4.94964394 C19.5772167,4.94964394 19.9934667,4.57123485 19.9934667,4.07691667 L19.9934667,0.876916667 C19.9934667,0.382598485 19.5772167,0.00418939394 19.0334667,0.00418939394 C18.4897167,0.00418939394 18.0734667,0.382598485 18.0734667,0.876916667" id="Fill-4"></path>
                    <path d="M21.196936,11.3216756 C21.196936,11.825639 20.767336,12.2415537 20.244136,12.2415537 L17.878856,12.2415537 C17.356936,12.2415537 16.926056,11.8267976 16.926056,11.3216756 L16.926056,9.0382 C16.926056,8.53423659 17.355656,8.11832195 17.878856,8.11832195 L20.244136,8.11832195 C20.766056,8.11832195 21.196936,8.53307805 21.196936,9.0382 L21.196936,11.3216756 Z M21.196936,18.143139 C21.196936,18.6471024 20.767336,19.0630171 20.244136,19.0630171 L17.878856,19.0630171 C17.356936,19.0630171 16.926056,18.648261 16.926056,18.143139 L16.926056,15.8596634 C16.926056,15.3557 17.355656,14.9397854 17.878856,14.9397854 L20.244136,14.9397854 C20.766056,14.9397854 21.196936,15.3545415 21.196936,15.8596634 L21.196936,18.143139 Z M14.131336,11.3216756 C14.131336,11.825639 13.701736,12.2415537 13.178536,12.2415537 L10.813336,12.2415537 C10.291336,12.2415537 9.860456,11.8267976 9.860456,11.3216756 L9.860456,9.0382 C9.860456,8.53423659 10.290136,8.11832195 10.813336,8.11832195 L13.178536,8.11832195 C13.700536,8.11832195 14.131336,8.53307805 14.131336,9.0382 L14.131336,11.3216756 Z M14.131336,18.143139 C14.131336,18.6471024 13.701736,19.0630171 13.178536,19.0630171 L10.813336,19.0630171 C10.291336,19.0630171 9.860456,18.648261 9.860456,18.143139 L9.860456,15.8596634 C9.860456,15.3557 10.290136,14.9397854 10.813336,14.9397854 L13.178536,14.9397854 C13.700536,14.9397854 14.131336,15.3545415 14.131336,15.8596634 L14.131336,18.143139 Z M7.065736,11.3216756 C7.065736,11.825639 6.636136,12.2415537 6.112936,12.2415537 L3.747736,12.2415537 C3.225736,12.2415537 2.794936,11.8267976 2.794936,11.3216756 L2.794936,9.0382 C2.794936,8.53423659 3.224536,8.11832195 3.747736,8.11832195 L6.112936,8.11832195 C6.634936,8.11832195 7.065736,8.53307805 7.065736,9.0382 L7.065736,11.3216756 Z M7.065736,18.143139 C7.065736,18.6471024 6.636136,19.0630171 6.112936,19.0630171 L3.747736,19.0630171 C3.225736,19.0630171 2.794936,18.648261 2.794936,18.143139 L2.794936,15.8596634 C2.794936,15.3557 3.224536,14.9397854 3.747736,14.9397854 L6.112936,14.9397854 C6.634936,14.9397854 7.065736,15.3545415 7.065736,15.8596634 L7.065736,18.143139 Z M23.008776,3.04756179 L20.275256,3.04756179 L20.275256,4.53048862 C20.275256,5.50945203 19.445976,6.31000081 18.431976,6.31000081 C17.418056,6.31000081 16.588776,5.50945203 16.588776,4.53048862 L16.588776,3.04756179 L7.680056,3.04756179 L7.680056,4.53048862 C7.680056,5.50945203 6.850776,6.31000081 5.836856,6.31000081 C4.822776,6.31000081 3.993576,5.50945203 3.993576,4.53048862 L3.993576,3.04756179 L0.952856,3.04756179 C0.430776,3.04756179 5.6e-05,3.46231789 5.6e-05,3.96743984 L5.6e-05,21.0801065 C5.6e-05,21.5840699 0.429576,21.9999846 0.952856,21.9999846 L22.978696,21.9999846 C23.500776,21.9999846 23.931576,21.5853057 23.931576,21.0801065 L23.930376,3.96743984 C23.961576,3.46231789 23.531896,3.04756179 23.008696,3.04756179 L23.008776,3.04756179 Z" id="Fill-7"></path>
                </g>
            </g>
        </g>
    </g>
</svg>