<?xml version="1.0" encoding="UTF-8"?>
<svg width="25px" height="33px" viewBox="0 0 25 33" version="1.1" xmlns="http://www.w3.org/2000/svg" xmlns:xlink="http://www.w3.org/1999/xlink">
    <!-- Generator: Sketch 46.2 (44496) - http://www.bohemiancoding.com/sketch -->
    <title>car</title>
    <desc>Created with Sketch.</desc>
    <defs>
        <polygon id="path-1" points="0 33 25 33 25 0 0 0"></polygon>
    </defs>
    <g id="01-Desktop" stroke="none" stroke-width="1" fill="none" fill-rule="evenodd">
        <g id="02E_Jog_Dashboard-Motors-Policy-Quote-Copy-4" transform="translate(-193.000000, -371.000000)">
            <g id="car" transform="translate(193.000000, 371.000000)">
                <mask id="mask-2" fill="white">
                    <use xlink:href="#path-1"></use>
                </mask>
                <g id="Clip-2"></g>
                <path d="M11.4573606,27.9330284 L13.5433925,27.9330284 C14.0532277,27.9314701 14.478718,28.3358613 14.5186312,28.8625828 L14.7468145,31.9161651 C14.7867277,32.4717161 14.3830768,32.9563622 13.8453776,32.9968793 C13.820526,32.9992168 13.7949212,32.999996 13.7708227,32.999996 L11.2291773,32.999996 C10.689972,33.0015543 10.2516794,32.5504127 10.2501732,31.9925242 C10.2501732,31.9668114 10.2509263,31.9410987 10.2531855,31.9161651 L10.4813688,28.8625828 C10.5220351,28.3374197 10.9452661,27.9330284 11.4543483,27.9330284 L11.4573606,27.9330284 Z M11.6268036,25.4046093 C11.1734494,25.4038301 10.8074525,25.0235933 10.8074525,24.5553098 C10.8074525,24.5342721 10.8082056,24.5132344 10.8097117,24.4921967 L11.0409073,21.3716054 C11.0725367,20.9329305 11.4227189,20.5924316 11.8482092,20.5869774 L13.1495316,20.5869774 C13.5772811,20.5877565 13.933488,20.9290347 13.9658704,21.3716054 L14.197066,24.4921967 C14.2317077,24.959701 13.8928216,25.3672089 13.4417267,25.4022718 C13.4206404,25.4038301 13.4003073,25.4046093 13.3807272,25.4046093 L11.6268036,25.4046093 Z M4.19766846,11.7698461 C4.20068078,11.1893615 4.65855348,10.7218572 5.21884508,10.7257531 C5.30394313,10.7265323 5.38753502,10.7374407 5.47037383,10.7600368 L7.85839082,11.4098677 C8.39910233,11.5618066 8.71916137,12.1383953 8.57231075,12.6986213 C8.45483026,13.1466463 8.06624093,13.4614325 7.61740519,13.4731201 L5.21282044,13.4731201 C4.65252884,13.4731201 4.19766846,13.0032783 4.19766846,12.4227938 L4.19766846,11.7698461 Z M17.1385969,11.4028552 L19.5273669,10.7530242 C20.0695846,10.6065395 20.6246046,10.9423634 20.7661837,11.5033686 C20.788023,11.5882986 20.7985661,11.675566 20.7993192,11.7628335 L20.7993192,12.4126645 C20.8045908,12.993149 20.3542489,13.4676659 19.7939573,13.4731201 C19.7901919,13.4731201 19.7879326,13.4731201 19.7841672,13.4731201 L17.3788294,13.4731201 C16.8185378,13.4746785 16.3636774,13.0056158 16.3621713,12.4251313 C16.3614182,11.9459394 16.6739464,11.5267438 17.1220291,11.4059719 L17.1385969,11.4028552 Z M1.31111245,9.23441436 L1.96252673,9.23441436 C1.89776185,9.32479852 1.83450312,9.41674104 1.77425671,9.51102107 C1.15673103,10.4795342 0.841943549,11.6202447 0.872066753,12.7796554 L0.872066753,19.2366691 C0.872066753,19.9807801 1.45570383,20.5838607 2.17414224,20.5838607 L3.86254782,20.5838607 C4.58173931,20.5838607 5.16462331,19.9807801 5.16462331,19.2366691 L5.16462331,18.2268598 L19.8459198,18.2268598 L19.8459198,19.2366691 C19.8459198,19.9807801 20.4288038,20.5838607 21.1472422,20.5838607 L22.8356478,20.5838607 C23.5548393,20.5838607 24.1377233,19.9807801 24.1377233,19.2366691 L24.1377233,12.7835512 C24.1678465,11.6233614 23.853059,10.4826509 23.2370395,9.51413777 C23.17604,9.42219525 23.1127813,9.33025274 23.0480164,9.23831023 L23.6986776,9.23831023 C24.408079,9.21571418 24.9781607,8.62587958 25,7.89189781 L25,6.93195563 C24.9864446,6.21199899 24.4276591,5.62995612 23.73106,5.61203512 L23.2490888,5.61203512 C22.6993403,5.64008538 22.178962,5.88007093 21.7918788,6.28602051 C21.1698346,4.68637659 20.3858782,2.868564 19.8978823,2.13769892 C19.1786908,1.12711044 18.0867247,0.470266884 16.8817965,0.323003026 C15.4321174,0.0861341754 13.9658704,-0.0198334683 12.4988704,0.00665844265 C11.0333765,-0.0276252068 9.56788264,0.0705506984 8.11820345,0.29962781 C6.91402838,0.446891668 5.82206223,1.10373522 5.10287074,2.11432371 C4.61110944,2.84518878 3.83016538,4.65988468 3.2088743,6.26186612 C2.82103805,5.85669571 2.30141278,5.61671017 1.75091123,5.58865991 L1.26969304,5.58865991 C0.573093954,5.60658091 0.0143085219,6.1878446 0,6.90858041 L0,7.86774342 C0.0128023617,8.6134128 0.590414797,9.21649336 1.31111245,9.23441436 L1.31111245,9.23441436 Z" id="Fill-1" fill="#666B7F" mask="url(#mask-2)"></path>
            </g>
        </g>
    </g>
</svg>