<svg xmlns="http://www.w3.org/2000/svg" width="612.85" height="612.85" viewBox="0 0 612.85 612.85"><path d="M600.485 221.792c-14.43-50.5-40.137-94.332-77.94-132.134-29.108-29.103-62.615-51.376-100.025-66.57C384.995 7.843 346.585 0 306.778 0v37.467c69.91 0 138.928 26.998 190.005 78.282 32.886 33.013 55.38 71.63 67.912 115.412 12.553 43.87 14.38 87.98 4.682 132.47-9.7 44.49-29.438 83.962-59.548 118.418l-52.185-51.177v127.452l130.13 2.006-52.184-52.182c34.792-39.48 57.872-84.64 69.248-135.153 11.37-50.513 9.992-101.012-4.353-151.203zM47.854 382.03c-12.532-43.776-14.052-87.98-4.353-132.47 9.707-44.497 29.775-84.305 59.884-118.76l52.183 51.854V54.53l-130.13-1.34 51.856 51.518C42.503 144.18 19.415 189.34 8.046 239.854c-11.376 50.513-10.084 101.04 4.346 151.54 14.344 50.197 40.143 94.002 77.946 131.805 29.103 29.103 62.61 51.376 100.02 66.57 37.532 15.243 76.276 23.08 116.42 23.08V576.05c-70.924 0-138.93-27.325-190.348-78.944-32.886-33.02-56.022-71.21-68.576-115.078z"/></svg>