<?xml version="1.0" encoding="UTF-8"?>
<svg width="24px" height="24px" viewBox="0 0 24 24" version="1.1" xmlns="http://www.w3.org/2000/svg" xmlns:xlink="http://www.w3.org/1999/xlink">
    <!-- Generator: Sketch 46.2 (44496) - http://www.bohemiancoding.com/sketch -->
    <title>share-ico-tw</title>
    <desc>Created with Sketch.</desc>
    <defs></defs>
    <g id="01-Desktop" stroke="none" stroke-width="1" fill="none" fill-rule="evenodd">
        <g id="02A_Jog_Landing-Page" transform="translate(-919.000000, -1296.000000)" fill-rule="nonzero" fill="#FFFFFF">
            <g id="Dashboard/Footer/Desktop" transform="translate(43.000000, 1271.000000)">
                <g id="Footer-Share-Icons" transform="translate(836.000000, 0.000000)">
                    <g id="footer-social" transform="translate(0.000000, 25.000000)">
                        <path d="M52,0 C45.372583,-4.05812251e-16 40,5.372583 40,12 C40,18.627417 45.372583,24 52,24 C58.627417,24 64,18.627417 64,12 C64,8.81740212 62.7357179,5.76515517 60.4852814,3.51471863 C58.2348448,1.26428208 55.1825979,1.94877915e-16 52,0 Z M58.3936,8.8128 L58.3936,9.2448 C58.3883314,12.6708567 56.5172869,15.8220359 53.5117808,17.4666712 C50.5062748,19.1113065 46.8435442,18.9882502 43.9552,17.1456 C44.2205662,17.1613601 44.4866338,17.1613601 44.752,17.1456 C46.2382597,17.1498164 47.6824999,16.6526189 48.8512,15.7344 C47.4364787,15.708434 46.1945029,14.7865949 45.76,13.44 C45.9664729,13.471878 46.1750807,13.4879247 46.384,13.488 C46.6728757,13.5079585 46.9631128,13.4918343 47.248,13.44 C45.7042798,13.1239625 44.5988849,11.7613121 44.608,10.1856 L44.608,10.1856 C45.0679823,10.4248207 45.5775775,10.5530415 46.096,10.56 C44.6410035,9.58966335 44.1947829,7.65323456 45.0784,6.144 C46.7516032,8.20746707 49.2221046,9.46365421 51.8752,9.6 C51.8207042,9.35079266 51.7917546,9.09667912 51.7888,8.8416 C51.7897209,7.48680743 52.6180083,6.27000799 53.8780808,5.7723323 C55.1381533,5.27465662 56.5743665,5.59707348 57.5008,6.5856 C58.2411457,6.43434008 58.949386,6.15494254 59.5936,5.76 C59.3550279,6.53502655 58.8388594,7.19476509 58.144,7.6128 C58.8060158,7.54109933 59.4533555,7.36955431 60.064,7.104 C59.6078246,7.76395082 59.0430141,8.34174543 58.3936,8.8128 L58.3936,8.8128 Z" id="share-ico-tw"></path>
                    </g>
                </g>
            </g>
        </g>
    </g>
</svg>