<svg xmlns="http://www.w3.org/2000/svg" viewBox="0 0 36.24 27.27"><defs><style>.cls-1{fill:none;stroke:#ff6876;stroke-miterlimit:10;stroke-width:2px;}</style></defs><title>camera</title><g id="Layer_2" data-name="Layer 2"><g id="Layer_1-2" data-name="Layer 1"><path class="cls-1" d="M5.08,1h6.52M3,4.26H33.2a2,2,0,0,1,2,2V24.23a2,2,0,0,1-2,2H3a2,2,0,0,1-2-2V6.3A2,2,0,0,1,3,4.26Zm27.12,3a2,2,0,1,0,2,2A2.05,2.05,0,0,0,30.16,7.3Zm-12,.63a7.34,7.34,0,1,1-7.34,7.34A7.32,7.32,0,0,1,18.12,7.93Zm0,4.08a3.26,3.26,0,1,1-3.26,3.26A3.25,3.25,0,0,1,18.12,12Z"/></g></g></svg>