<svg xmlns="http://www.w3.org/2000/svg" viewBox="0 0 116.8 46.7"><defs><style>.cls-1{fill:#4c5066;}</style></defs><title>car-outline</title><g id="Layer_2" data-name="Layer 2"><g id="Layer_1-2" data-name="Layer 1"><path class="cls-1" d="M80.76,15.32c1.3.08,2.66.19,4.08.32C83.41,15.51,82.06,15.4,80.76,15.32Z"/><path class="cls-1" d="M114.1,34.42c0-.6,0-1.12,0-1.15a12.39,12.39,0,0,0-1.65-6,12.39,12.39,0,0,1,1.65,6S114.1,33.81,114.1,34.42Z"/><path class="cls-1" d="M48.11,2.89A58.79,58.79,0,0,0,39,4.2q-1.37.32-2.72.75Q37.66,4.52,39,4.2A58.79,58.79,0,0,1,48.11,2.89Z"/><path class="cls-1" d="M94.32,40.54A7.67,7.67,0,0,0,96.84,43,7.67,7.67,0,0,1,94.32,40.54Z"/><path class="cls-1" d="M91.88,25.13a18.07,18.07,0,0,1,5-2.23A18.07,18.07,0,0,0,91.88,25.13Z"/><path class="cls-1" d="M50.79,15V2.75c1,0,2-.06,3-.06-1,0-2,0-3,.06V15c2,0,4,0,6,0C54.76,15.06,52.78,15,50.79,15Z"/><path class="cls-1" d="M26.76,16.81a3.89,3.89,0,0,1-1.15-1.21,5.3,5.3,0,0,1-.69-2.33,5.3,5.3,0,0,0,.69,2.33A3.89,3.89,0,0,0,26.76,16.81Z"/><path class="cls-1" d="M4.08,33.45,3.44,34a2,2,0,0,0-.57.72A2,2,0,0,1,3.44,34Z"/><path class="cls-1" d="M76.63,13.54A12,12,0,0,1,71,15,12,12,0,0,0,76.63,13.54Z"/><path class="cls-1" d="M23.48,23a17.24,17.24,0,0,0-4.21.23,1.34,1.34,0,0,1-1-.23,1.34,1.34,0,0,0,1,.23A17.23,17.23,0,0,1,23.48,23Z"/><path class="cls-1" d="M55.72,19.57H50.79a1.34,1.34,0,1,0,0,2.68h4.92a1.34,1.34,0,0,0,0-2.68Z"/><path class="cls-1" d="M116.78,33.26c0-8.06-7.22-14.77-13.94-17a78.13,78.13,0,0,0-15.51-3.08c-3-.33-5.65-.55-8.15-.66L72.74,2.4A1.34,1.34,0,0,0,72,1.83C67.06.46,61.67.19,57,0A72.32,72.32,0,0,0,38.43,1.59,43.33,43.33,0,0,0,19.3,12c-4.43,4-8,8.63-11.37,13.13-.82,1.09-1.65,2.18-2.49,3.26a21.62,21.62,0,0,1-3.12,3.07L1.67,32C0,33.47,0,35,0,36.56V37a1.34,1.34,0,0,0,1.34,1.34H12.09A10.31,10.31,0,0,0,32.17,39H90.73a10.31,10.31,0,0,0,20.18-1.31h4.54a1.34,1.34,0,0,0,1.34-1.35Zm-66-30.52c1,0,2-.06,3-.06s2.06,0,3.13,0a79.28,79.28,0,0,1,10.43.83c1.15.19,2.29.42,3.41.72l5.88,9.26A12,12,0,0,1,71,15c-1.25.08-2.54.07-3.76.07h-2c-2.83,0-5.71,0-8.5,0-2,0-4,0-6,0ZM28.42,8.55A38.45,38.45,0,0,1,36.32,5Q37.66,4.52,39,4.2a58.79,58.79,0,0,1,9.08-1.31V15.08l-3.39,0c-2.56,0-5.17.1-7.77.08s-5.2-.11-7.75-.33a1.49,1.49,0,0,1-1.3-.67C27.13,12.94,27.86,10,28.42,8.55ZM22.21,44a7.64,7.64,0,1,1,7.64-7.64A7.64,7.64,0,0,1,22.21,44Zm78.48,0a7.57,7.57,0,0,1-3.85-1,7.67,7.67,0,0,1-2.52-2.43,7.57,7.57,0,0,1-1.14-2.8s0,0,0-.05a1.31,1.31,0,0,0-.08-.37,7.75,7.75,0,0,1-.06-.94A7.64,7.64,0,1,1,100.69,44Zm10.22-9a10.18,10.18,0,0,0-.41-1.84,10.31,10.31,0,0,0-20.13,3.15H84.62a19.28,19.28,0,0,1,2.4-6.2,15.63,15.63,0,0,1,4.85-5,18.07,18.07,0,0,1,5-2.23q.94-.26,1.94-.45a1.34,1.34,0,0,0-.49-2.64,22.6,22.6,0,0,0-6.2,2.08,19.09,19.09,0,0,0-3.44,2.25,18.32,18.32,0,0,0-4,4.6,22,22,0,0,0-2.84,7.6H38.55a19.2,19.2,0,0,0-2.41-8.3,15.41,15.41,0,0,0-1.91-2.6,16.27,16.27,0,0,0-1.16-1.16c-3.7-3.32-8.76-4.63-14.25-3.67a1.34,1.34,0,1,0,.46,2.65A17.24,17.24,0,0,1,23.48,23a12.82,12.82,0,0,1,7.79,3.25C34,28.72,35.47,32,35.86,36.35H32.53a10.31,10.31,0,0,0-20.6-.67H2.69a2.59,2.59,0,0,1,.17-.95A2,2,0,0,1,3.44,34l.65-.56A24,24,0,0,0,7.56,30c.85-1.09,1.68-2.19,2.51-3.28,3.49-4.6,6.78-9,11-12.75a49.11,49.11,0,0,1,4-3.2,10.49,10.49,0,0,0-.14,2.51,5.3,5.3,0,0,0,.69,2.33,3.89,3.89,0,0,0,1.15,1.21,4.59,4.59,0,0,0,2.22.74c3,.26,6.1.34,9.16.34,2.23,0,4.45,0,6.64-.08,1.86,0,3.72-.07,5.56-.08,2.13,0,4.26,0,6.39,0,2.8,0,5.7.05,8.57,0H67.2c3.79,0,8.43,0,11.65-2.54l1.92.1c1.3.08,2.66.19,4.08.32l2.19.23a75.66,75.66,0,0,1,15,3,19.32,19.32,0,0,1,10.45,8.46,12.39,12.39,0,0,1,1.65,6s0,.54,0,1.15c0,.2,0,.41,0,.62Z"/><path class="cls-1" d="M93.19,37.69s0,0,0,.05a7.57,7.57,0,0,0,1.14,2.8,7.57,7.57,0,0,1-1.14-2.8S93.19,37.71,93.19,37.69Z"/><path class="cls-1" d="M36.14,28.05a15.41,15.41,0,0,0-1.91-2.6A15.41,15.41,0,0,1,36.14,28.05Z"/><path class="cls-1" d="M98.36,19.82a22.6,22.6,0,0,0-6.2,2.08,22.6,22.6,0,0,1,6.2-2.08,1.34,1.34,0,0,1,1.57,1.07A1.34,1.34,0,0,0,98.36,19.82Z"/><path class="cls-1" d="M92.16,21.89a19.09,19.09,0,0,0-3.44,2.25A19.09,19.09,0,0,1,92.16,21.89Z"/><path class="cls-1" d="M110.5,33.2A10.31,10.31,0,0,0,108.77,30,10.31,10.31,0,0,1,110.5,33.2Z"/><path class="cls-1" d="M37,15.2c-2.6,0-5.2-.11-7.75-.33C31.75,15.1,34.35,15.18,37,15.2Z"/><path class="cls-1" d="M76.63,13.54,70.75,4.28c-1.12-.29-2.26-.53-3.41-.72,1.15.19,2.29.42,3.41.72Z"/></g></g></svg>