<?xml version="1.0" encoding="UTF-8"?>
<svg width="47px" height="23px" viewBox="0 0 47 23" version="1.1" xmlns="http://www.w3.org/2000/svg" xmlns:xlink="http://www.w3.org/1999/xlink">
    <!-- Generator: Sketch 43.1 (39012) - http://www.bohemiancoding.com/sketch -->
    <title>logo</title>
    <desc>Created with Sketch.</desc>
    <defs></defs>
    <g id="Page-1" stroke="none" stroke-width="1" fill="none" fill-rule="evenodd">
        <g id="logo" fill-rule="nonzero">
            <path d="M11.2874713,11.6740736 C11.2874713,13.4833425 10.7681174,14.8970125 9.72940949,15.9150837 C8.69070158,16.9331549 7.23206603,17.442953 5.35350283,17.4444782 C3.61210577,17.4444782 2.29025322,17.0454477 1.38794518,16.2473867 C0.485637133,15.4493256 0.0350578285,14.3586168 0.0362072655,12.9752601 C0.0388382397,12.5235211 0.0848331316,12.0730655 0.173564987,11.6300335 L3.26669995,11.0826772 C3.2058499,11.5055122 3.17531269,11.9321205 3.17531971,12.3592699 C3.17531971,13.2255836 3.35865491,13.8602576 3.72532532,14.2632918 C4.09199572,14.6663259 4.66479849,14.8676524 5.44373363,14.8672711 C6.42113823,14.8672711 7.11233301,14.5746233 7.51731798,13.9893277 C7.92230295,13.404032 8.12460386,12.4889119 8.12422072,11.2439671 L8.12422072,2.16597505 L11.2851725,2.16597505 L11.2874713,11.6740736 Z" id="Shape" fill="#FFFFFF"></path>
            <path d="M23.4548367,7.15967143 C24.4851154,8.20824663 25.0002548,9.659856 25.0002548,11.5144995 C25.0002548,13.3691431 24.4847323,14.8207525 23.4536873,15.8693277 C22.4234086,16.919428 20.9848882,17.4444782 19.1381261,17.4444782 C17.2913639,17.4444782 15.8516941,16.92 14.8191165,15.8710435 C13.7869221,14.8228496 13.2708249,13.3706683 13.2708249,11.5144995 C13.2708249,9.6583308 13.7863474,8.20672143 14.8173924,7.15967143 C15.8484374,6.11071494 17.2881072,5.58623669 19.1364019,5.58623669 C20.9846966,5.58623669 22.4241749,6.11071494 23.4548367,7.15967143 Z M17.1082203,8.81260724 C16.6423152,9.41315485 16.4093626,10.3137856 16.4093626,11.5144995 C16.4093626,12.7152135 16.6423152,13.6158442 17.1082203,14.2163918 C17.5741254,14.8169395 18.2499944,15.1172133 19.1358272,15.1172133 C20.02166,15.1172133 20.6975289,14.8169395 21.163434,14.2163918 C21.6293392,13.6162255 21.8622917,12.7155948 21.8622917,11.5144995 C21.8622917,10.3134043 21.6293392,9.41277355 21.163434,8.81260724 C20.6975289,8.21244093 20.0224262,7.91216712 19.1381261,7.91178582 C18.2538259,7.91140452 17.5771906,8.21167833 17.1082203,8.81260724 Z" id="Shape" fill="#FFFFFF"></path>
            <path d="M37.0693433,15.8922057 C37.7486605,16.4393713 38.0885107,17.2221803 38.0888939,18.2406328 C38.0888939,19.4565987 37.523754,20.4066078 36.3934743,21.0906602 C35.2631946,21.7747125 33.7739074,22.1167387 31.9256127,22.1167387 C30.0160147,22.1167387 28.5993336,21.8658432 27.6755694,21.3640523 C26.7518052,20.8622614 26.2897315,20.1782091 26.2893483,19.3118953 C26.2824003,18.8123164 26.4714628,18.3297286 26.8163652,17.9666687 C27.1677098,17.5853686 27.6870637,17.3117858 28.3744271,17.1459203 C27.8548815,16.9331549 27.4424252,16.632881 27.1370581,16.2450989 C26.831691,15.8573167 26.6784328,15.3974688 26.6772833,14.8655552 C26.6772833,14.3183896 26.8376298,13.8471027 27.1583227,13.4516946 C27.4790156,13.0562864 27.921932,12.7598256 28.4870719,12.5623121 C27.9066062,12.2282933 27.4636898,11.7989494 27.1583227,11.2742805 C26.8529556,10.7496116 26.6996974,10.1454416 26.6985479,9.46177061 C26.6985479,8.26105669 27.1682845,7.31486056 28.1077577,6.62318223 C29.0472309,5.9315039 30.3263627,5.58566474 31.9451531,5.58566474 C32.7263218,5.58012364 33.5046529,5.6797842 34.2589698,5.8819349 C34.4574392,4.98511713 34.8430754,4.2819998 35.4158781,3.7725829 C35.9886809,3.26316601 36.7637846,3.03896157 37.7411892,3.09996958 L38.1538371,5.33457864 C37.994149,5.31670036 37.8334711,5.30905859 37.6727977,5.31170064 C37.1076578,5.31170064 36.6379212,5.41045736 36.2635879,5.60797079 C35.8892546,5.80548423 35.627183,6.07144103 35.477373,6.40584119 C36.013335,6.71169265 36.4595384,7.15180305 36.7716391,7.68243383 C37.0693433,8.19947673 37.2181953,8.79239834 37.2181953,9.46119866 C37.2181953,10.6466606 36.7484588,11.5852307 35.8089856,12.276909 C34.8695124,12.9685874 33.5827177,13.3144265 31.9486014,13.3144265 C31.2554933,13.3207058 30.5637322,13.2524382 29.885362,13.1108123 C29.2895705,13.2633323 28.9916747,13.6053585 28.9916747,14.1368908 C28.9916747,14.4419308 29.1066184,14.6737613 29.3365058,14.8323821 C29.5663932,14.9910029 29.8870862,15.0708853 30.2985846,15.0720292 L34.1704631,15.0720292 C35.4233495,15.0716479 36.3896428,15.3450401 37.0693433,15.8922057 Z M34.6520772,19.5744204 C35.2325429,19.3075104 35.5227758,18.9692972 35.5227758,18.559781 C35.5357321,18.2639364 35.3801159,17.9860616 35.1204728,17.8414116 C34.8522709,17.6816469 34.4131859,17.6017645 33.803218,17.6017645 L30.6899679,17.6017645 C29.4221389,17.6017645 28.7882244,17.9437907 28.7882244,18.627843 C28.7882244,19.0529926 29.0707943,19.3835798 29.6359342,19.6196045 C30.201074,19.8556292 31.0487838,19.973451 32.1790635,19.9730697 C33.2472737,19.973451 34.0718031,19.8405679 34.652652,19.5744204 L34.6520772,19.5744204 Z M30.4485861,8.0713599 C30.058927,8.42139337 29.8640974,8.87666565 29.8640974,9.43717676 C29.8640974,10.0148464 30.058927,10.4785073 30.4485861,10.8281594 C30.8382453,11.1778116 31.3384419,11.3526377 31.9491761,11.3526377 C32.5752362,11.3526377 33.0830957,11.1778116 33.4727549,10.8281594 C33.862414,10.4785073 34.057052,10.0148464 34.0566689,9.43717676 C34.0566689,8.87514045 33.8618393,8.41910557 33.4721802,8.0690721 C33.082521,7.71903864 32.574853,7.5459284 31.9491761,7.54974141 C31.3395914,7.54974141 30.8393947,7.72361424 30.4485861,8.0713599 Z" id="Shape" fill="#FFFFFF"></path>
            <path d="M45.2205757,0.406656526 C45.7081693,0.665796875 46.1089262,1.06124341 46.373461,1.54426529 C46.6454945,2.03537978 46.7817028,2.60599534 46.7820859,3.25611196 C46.782469,3.90622858 46.6462608,4.47684413 46.373461,4.96795862 C46.1090698,5.45123252 45.7082905,5.84690011 45.2205757,6.10613934 C44.7224864,6.37304939 44.1443196,6.50650441 43.4860753,6.50650441 C42.819785,6.50650441 42.238553,6.37304939 41.7423794,6.10613934 C41.2546243,5.84695449 40.853831,5.45127311 40.5894941,4.96795862 C40.3170775,4.47722543 40.1808692,3.90660988 40.1808692,3.25611196 C40.1808692,2.60561404 40.3170775,2.03499848 40.5894941,1.54426529 C40.8538853,1.06099139 41.2546647,0.665323802 41.7423794,0.406084576 C42.2404687,0.139174526 42.8217007,0.00571950106 43.4860753,0.00571950106 C44.1458521,0.00533820099 44.724019,0.138983876 45.2205757,0.406656526 Z" id="Shape" fill="#FF6876"></path>
        </g>
    </g>
</svg>
