<svg xmlns="http://www.w3.org/2000/svg" viewBox="0 0 83.85 91.64"><defs><style>.cls-1{fill:#656a7f;}.cls-2{fill:#ff6876;}.cls-3{fill:none;}.cls-4{fill:#192142;}</style></defs><title>upload</title><g id="Layer_2" data-name="Layer 2"><g id="Layer_1-2" data-name="Layer 1"><path class="cls-1" d="M59.54,28.27H55.47a1.3,1.3,0,1,0,0,2.6h4.07a1.3,1.3,0,0,0,0-2.6Z"/><path class="cls-1" d="M83.16,75.72l-1-1.07a2.45,2.45,0,0,0-3.31-.18l0,0-.71-1.24.36-11.57a7.51,7.51,0,0,0-1.36-4.49l-6-8.53V28.8a4.39,4.39,0,0,0-4.38-4.38H48.33a4.39,4.39,0,0,0-4.38,4.38V64.68a4.39,4.39,0,0,0,4.38,4.38h5.3c.54,4.3,2.42,6.59,5.24,10l5.81,7.08a2.41,2.41,0,0,0-.16,3.15l1.05,1.37a2.45,2.45,0,0,0,1.68.94h.26a2.45,2.45,0,0,0,1.58-.58L83,79.27a2.44,2.44,0,0,0,.17-3.56Zm-2,1.69L67.53,89l-.85-1.11,13.67-11.3ZM68.45,32.13H46.55V28.8A1.78,1.78,0,0,1,48.33,27H66.67a1.78,1.78,0,0,1,1.78,1.78ZM53.16,58.79a1.27,1.27,0,0,0-.32,0H46.55v-24h21.9v24H63.8l-1.88-5.38a4.63,4.63,0,0,0-8.9,2Zm4.06-5.61a2.25,2.25,0,0,1,.49-.05,1.86,1.86,0,0,1,1.79,1.18l3.58,10.22a1.3,1.3,0,0,0,1,.86l5.46.8A1.3,1.3,0,0,0,71,65.08a1.31,1.31,0,0,0,0-.31.72.72,0,0,0,0-.1V53.16l3.89,5.52a4.88,4.88,0,0,1,.89,2.91l-.37,11.93a1.3,1.3,0,0,0,.17.68l1.11,2L66.67,84.49l-5.79-7.06c-3.08-3.74-4.62-5.62-4.8-10.22l-.46-12A2,2,0,0,1,57.21,53.18Zm11.24,8.17v2l-3.19-.47-.55-1.57Zm-21.9,0h6.29a1.28,1.28,0,0,0,.42-.07l.2,5.18H48.33a1.78,1.78,0,0,1-1.78-1.78Z"/><path class="cls-1" d="M32.76,41.43H13V44H32.76v10.4H13V57H32.76a2.6,2.6,0,0,0,2.6-2.6V44A2.6,2.6,0,0,0,32.76,41.43Z"/><path class="cls-1" d="M2.6,57H7.8v2.6h2.6V38.83H7.8v2.6H2.6A2.6,2.6,0,0,0,0,44v10.4A2.6,2.6,0,0,0,2.6,57Zm0-13H7.8v10.4H2.6V44Z"/><path class="cls-1" d="M7.8,59.63h2.6V38.83H7.8Z"/><rect class="cls-1" x="2.6" y="59.63" width="5.2" height="2.6"/><rect class="cls-1" x="10.4" y="59.63" width="5.2" height="2.6"/><rect class="cls-1" x="10.4" y="36.23" width="5.2" height="2.6"/><rect class="cls-1" x="2.6" y="36.23" width="5.2" height="2.6"/><rect class="cls-1" x="36.53" y="27.9" width="4.58" height="2.7"/><path class="cls-2" d="M39.22,21.16a1.36,1.36,0,0,0-.08-1.91l-4.95-4.5a1.14,1.14,0,0,0-.91-.35h0a1.21,1.21,0,0,0-.91.35l-4.95,4.5a1.36,1.36,0,0,0-.08,1.91,1.41,1.41,0,0,0,1.91.08l2.69-2.45V31.95a1.35,1.35,0,0,0,2.7,0V18.8l2.69,2.45A1.44,1.44,0,0,0,39.22,21.16Z"/><path class="cls-1" d="M45.79,12.68A12.53,12.53,0,0,0,21,10.14a10.32,10.32,0,0,0,2,20.46h6.73V27.9H22.93a7.65,7.65,0,0,1-.7-15.27,1.35,1.35,0,0,0,1.21-1.18,9.9,9.9,0,1,1,19.67,2.33,1.35,1.35,0,0,0,1.17,1.51H45a6.26,6.26,0,0,1,6.3,6.3c0,.08,0,.16,0,.24H54c0-.08,0-.16,0-.24A9,9,0,0,0,45.79,12.68Z"/><polygon class="cls-3" points="66.68 87.86 67.53 88.97 81.17 77.4 80.35 76.56 66.68 87.86"/><path class="cls-1" d="M71,48.6m0,15.17h0m-2.6-.39-3.19-.47-.55-1.57-.91-2.6-1.88-5.38a4.63,4.63,0,0,0-8.9,2l.13,3.45.1,2.49.2,5.18.18,2.6c.54,4.3,2.42,6.59,5.24,10l5.81,7.08a2.41,2.41,0,0,0-.16,3.15l1.05,1.37a2.45,2.45,0,0,0,1.68.94h.26a2.45,2.45,0,0,0,1.58-.58L83,79.27a2.44,2.44,0,0,0,.17-3.56l-1-1.07a2.45,2.45,0,0,0-3.31-.18l0,0-.71-1.24.36-11.57a7.51,7.51,0,0,0-1.36-4.49l-6-8.53,0-.05,0,4.56,3.89,5.52a4.88,4.88,0,0,1,.89,2.91l-.37,11.93a1.3,1.3,0,0,0,.17.68l1.11,2L66.67,84.49l-5.79-7.06c-3.08-3.74-4.62-5.62-4.8-10.22l-.46-12a2,2,0,0,1,1.59-2.06,2.25,2.25,0,0,1,.49-.05,1.86,1.86,0,0,1,1.79,1.18l3.58,10.22a1.3,1.3,0,0,0,1,.86l5.46.8a1.29,1.29,0,0,0,1.46-1V63.77l-5-.72,5,.72M67.53,89l-.85-1.11,13.67-11.3.82.84Z"/><path class="cls-4" d="M71,65.08a1.31,1.31,0,0,0,0-.31.72.72,0,0,0,0-.1v-.9h0v1.39S71,65.11,71,65.08Z"/></g></g></svg>